<?xml version="1.0" standalone="no"?>
<!DOCTYPE svg PUBLIC "-//W3C//DTD SVG 20010904//EN"
 "http://www.w3.org/TR/2001/REC-SVG-20010904/DTD/svg10.dtd">
<svg version="1.0" xmlns="http://www.w3.org/2000/svg"
 width="128.000000pt" height="128.000000pt" viewBox="0 0 128.000000 128.000000"
 preserveAspectRatio="xMidYMid meet">
<metadata>
Created by potrace 1.16, written by Peter Selinger 2001-2019
</metadata>
<g transform="translate(0.000000,128.000000) scale(0.100000,-0.100000)"
fill="#000000" stroke="none">
<path d="M353 1122 l-273 -157 0 -325 0 -325 274 -158 c150 -86 279 -157 286
-157 7 0 136 71 286 158 l274 157 0 325 0 325 -274 158 c-150 86 -279 157
-287 157 -8 0 -137 -71 -286 -158z m244 -139 c-2 -2 -72 -2 -155 -1 l-151 3
152 87 152 88 3 -86 c2 -48 1 -88 -1 -91z m258 79 c72 -41 132 -77 134 -78 2
-2 -66 -4 -152 -4 l-157 0 0 90 0 91 23 -12 c12 -7 81 -46 152 -87z m-255
-252 c0 -49 -2 -90 -6 -90 -6 0 -285 160 -298 172 -6 4 61 8 147 8 l157 0 0
-90z m385 82 c-13 -12 -292 -172 -299 -172 -3 0 -6 41 -6 90 l0 90 157 0 c87
0 153 -4 148 -8z m-603 -153 c195 -113 182 -94 97 -143 -41 -24 -77 -41 -81
-39 -3 2 -37 56 -74 121 -36 64 -69 120 -71 125 -8 14 7 6 129 -64z m645 64
c-2 -5 -35 -61 -72 -125 -36 -65 -71 -118 -77 -118 -18 0 -139 72 -136 81 3 9
266 166 281 168 5 1 6 -2 4 -6z m-777 -171 c39 -68 70 -125 68 -126 -4 -3
-130 -78 -140 -83 -5 -2 -8 73 -8 168 0 95 2 170 4 168 2 -2 36 -60 76 -127z
m858 -126 l-3 -84 -70 40 c-38 23 -71 42 -73 43 -2 2 30 60 70 129 l73 127 3
-86 c1 -47 1 -123 0 -169z m-508 -123 c0 -97 -2 -174 -4 -172 -2 2 -38 62 -79
134 l-75 129 71 42 c40 23 75 43 80 43 4 1 7 -78 7 -176z m172 130 l67 -38
-76 -130 c-41 -72 -77 -132 -79 -134 -2 -2 -4 76 -4 173 0 139 3 177 13 173 6
-2 42 -22 79 -44z m-332 -211 c39 -68 70 -125 68 -127 -5 -4 -287 159 -288
167 0 6 143 89 146 85 1 -1 34 -57 74 -125z m617 41 c3 -8 -279 -174 -285
-168 -2 2 29 60 69 129 l73 126 70 -40 c39 -21 72 -42 73 -47z"/>
</g>
</svg>
