<?xml version="1.0" standalone="no"?>
<!DOCTYPE svg PUBLIC "-//W3C//DTD SVG 20010904//EN"
 "http://www.w3.org/TR/2001/REC-SVG-20010904/DTD/svg10.dtd">
<svg version="1.0" xmlns="http://www.w3.org/2000/svg"
 width="128.000000pt" height="128.000000pt" viewBox="0 0 128.000000 128.000000"
 preserveAspectRatio="xMidYMid meet">
<metadata>
Created by potrace 1.16, written by Peter Selinger 2001-2019
</metadata>
<g transform="translate(0.000000,128.000000) scale(0.100000,-0.100000)"
fill="#000000" stroke="none">
<path d="M60 640 l0 -580 580 0 580 0 0 580 0 580 -580 0 -580 0 0 -580z m894
369 l-141 -141 -279 141 -279 140 420 0 420 1 -141 -141z m-511 -40 c166 -83
304 -153 306 -155 3 -3 -24 -34 -59 -69 l-64 -65 -248 0 -248 0 0 220 c0 121
2 220 5 220 3 0 141 -68 308 -151z m707 -74 l0 -195 -132 66 -131 66 129 129
c71 71 130 129 131 129 2 0 3 -88 3 -195z m-185 -187 c69 -35 125 -65 125 -68
0 -3 -59 -35 -130 -70 l-130 -65 -67 68 -68 67 65 65 c35 36 68 65 72 65 4 0
64 -28 133 -62z m-275 -173 c35 -35 62 -66 59 -69 -6 -6 -608 -306 -614 -306
-3 0 -5 99 -5 220 l0 220 248 0 248 0 64 -65z m458 -251 l-3 -94 -129 129
-129 129 129 65 129 65 3 -100 c1 -54 1 -142 0 -194z m-193 -14 l140 -140
-420 1 -420 0 275 139 c151 76 277 139 280 139 3 1 68 -62 145 -139z"/>
</g>
</svg>
