<?xml version="1.0" standalone="no"?>
<!DOCTYPE svg PUBLIC "-//W3C//DTD SVG 20010904//EN"
 "http://www.w3.org/TR/2001/REC-SVG-20010904/DTD/svg10.dtd">
<svg version="1.0" xmlns="http://www.w3.org/2000/svg"
 width="128.000000pt" height="128.000000pt" viewBox="0 0 128.000000 128.000000"
 preserveAspectRatio="xMidYMid meet">
<metadata>
Created by potrace 1.16, written by Peter Selinger 2001-2019
</metadata>
<g transform="translate(0.000000,128.000000) scale(0.100000,-0.100000)"
fill="#000000" stroke="none">
<path d="M375 1162 c-21 -3 -51 -26 -111 -88 -45 -46 -88 -84 -96 -84 -8 0
-37 16 -64 35 -52 37 -73 42 -92 23 -23 -23 -14 -62 21 -89 111 -89 180 -80
288 40 40 44 72 71 85 71 12 0 48 -30 95 -78 115 -122 163 -122 279 0 49 51
83 78 97 78 15 0 39 -21 78 -69 66 -82 108 -105 176 -99 85 9 171 91 142 137
-18 29 -51 24 -95 -13 -23 -20 -51 -36 -64 -36 -14 0 -44 25 -89 75 -78 88
-94 98 -150 97 -57 -2 -101 -29 -160 -102 -28 -33 -57 -62 -65 -65 -9 -4 -38
19 -80 62 -36 38 -73 75 -82 82 -22 17 -75 27 -113 23z"/>
<path d="M265 685 c-45 -47 -89 -85 -97 -85 -8 0 -30 11 -49 25 -79 57 -111
57 -117 -2 -3 -27 4 -35 48 -68 102 -75 183 -58 276 57 39 46 63 68 78 68 15
0 48 -27 97 -79 116 -123 162 -123 280 0 48 51 83 79 97 79 14 0 39 -21 74
-66 71 -88 104 -108 172 -102 70 6 156 65 156 107 0 59 -39 66 -101 16 -24
-19 -53 -35 -64 -35 -12 0 -51 33 -100 85 l-80 85 -51 0 c-62 0 -112 -30 -173
-104 -65 -80 -66 -80 -141 1 -83 89 -107 103 -171 103 -51 0 -51 0 -134 -85z"/>
<path d="M266 295 c-49 -51 -89 -85 -101 -85 -11 0 -40 16 -64 35 -62 50 -101
43 -101 -16 0 -40 85 -100 150 -107 66 -6 109 17 172 94 76 94 85 94 177 -4
118 -124 163 -124 282 -1 46 48 84 79 97 79 13 0 39 -24 73 -66 66 -80 107
-107 164 -106 47 0 72 11 128 54 39 31 50 71 25 96 -20 20 -44 14 -88 -23 -23
-19 -52 -35 -63 -35 -14 0 -50 30 -103 85 -79 83 -82 85 -128 85 -63 0 -90
-16 -168 -99 -37 -39 -71 -71 -77 -71 -13 0 -33 20 -85 83 -49 59 -100 87
-162 87 -46 0 -49 -2 -128 -85z"/>
</g>
</svg>
