<?xml version="1.0" standalone="no"?>
<!DOCTYPE svg PUBLIC "-//W3C//DTD SVG 20010904//EN"
 "http://www.w3.org/TR/2001/REC-SVG-20010904/DTD/svg10.dtd">
<svg version="1.0" xmlns="http://www.w3.org/2000/svg"
 width="128.000000pt" height="128.000000pt" viewBox="0 0 128.000000 128.000000"
 preserveAspectRatio="xMidYMid meet">

<g transform="translate(0.000000,128.000000) scale(0.100000,-0.100000)"
fill="#000000" stroke="none">
<path d="M653 1265 c-12 -8 -60 -89 -107 -178 -85 -163 -85 -163 -138 -188
-28 -13 -65 -35 -80 -47 -50 -42 -28 -102 36 -102 l33 0 -20 -57 c-12 -38 -17
-74 -15 -105 l5 -47 -89 -3 c-85 -3 -88 -2 -88 19 0 12 -5 78 -11 147 -9 110
-8 128 5 148 26 36 20 85 -13 119 -74 74 -191 -10 -146 -106 10 -19 21 -35 25
-35 4 0 10 -42 14 -92 7 -93 15 -116 35 -104 6 4 8 37 4 91 -5 73 -4 85 10 85
21 0 25 -15 34 -160 9 -142 9 -132 -11 -185 l-15 -40 -1 60 c0 74 -8 105 -26
105 -18 0 -18 -35 4 -318 15 -196 20 -226 36 -238 40 -29 101 8 92 56 -3 14
-8 78 -12 143 -5 96 -4 117 7 117 8 0 22 -14 32 -31 16 -29 20 -31 60 -26 23
4 55 9 70 13 26 6 28 4 23 -17 -3 -13 -10 -72 -17 -132 -12 -107 -12 -108 11
-132 l23 -25 277 0 277 0 23 25 c23 24 23 25 11 132 -7 60 -15 119 -18 132 -5
22 -4 23 23 17 16 -4 48 -9 71 -13 40 -5 44 -3 60 26 12 21 26 31 41 31 31 0
82 52 82 84 0 76 -45 106 -159 106 l-80 0 6 48 c3 33 -1 64 -14 105 l-20 57
33 0 c38 0 64 22 64 55 0 27 -38 59 -116 98 -50 26 -52 28 -133 186 -45 88
-92 167 -104 176 -27 19 -66 19 -94 0z m134 -130 c29 -55 52 -103 53 -107 0
-5 -16 -8 -35 -8 -23 0 -35 -5 -35 -14 0 -17 22 -26 64 -26 25 0 35 -6 44 -25
l12 -25 -190 0 -190 0 12 25 c10 23 16 24 107 27 82 3 96 6 99 21 3 15 -6 17
-82 17 -47 0 -86 2 -86 5 0 9 91 189 103 203 6 7 24 12 41 10 28 -3 36 -12 83
-103z m-639 -187 c20 -20 15 -76 -7 -88 -41 -22 -91 2 -91 43 0 45 67 76 98
45z m847 -92 c33 -18 61 -40 63 -49 3 -16 -27 -17 -357 -17 -198 0 -362 4
-365 9 -7 11 9 24 75 61 l54 30 235 0 235 0 60 -34z m-532 -141 c-7 -45 13
-92 48 -110 19 -11 26 -20 22 -34 -8 -30 47 -54 106 -47 25 3 53 6 61 6 8 0
36 -3 61 -6 59 -7 114 17 106 47 -4 14 3 23 22 34 35 18 55 65 48 111 -5 29
-3 35 11 32 26 -5 55 -94 50 -156 -8 -98 -43 -130 -285 -258 -7 -3 -19 -3 -25
0 -256 135 -283 162 -283 274 0 73 24 142 49 142 11 0 13 -8 9 -35z m435 -8
c2 -26 -2 -45 -14 -58 -18 -20 -64 -26 -64 -9 0 20 -57 38 -120 38 -63 0 -120
-18 -120 -38 0 -16 -42 -11 -62 7 -18 16 -26 82 -11 97 4 3 93 5 197 4 l191
-3 3 -38z m-103 -99 c14 -16 25 -34 25 -39 0 -15 -74 -10 -98 7 -20 14 -24 14
-44 0 -24 -17 -98 -22 -98 -7 0 5 11 23 25 39 24 28 30 30 95 30 65 0 71 -2
95 -30z m-555 -163 c0 -48 -3 -55 -19 -55 -26 0 -51 26 -51 52 0 27 28 58 52
58 15 0 18 -8 18 -55z m188 6 c28 -28 77 -62 118 -81 38 -18 83 -43 101 -56
36 -28 75 -31 94 -8 7 8 54 36 106 61 65 32 105 58 132 89 36 41 42 44 90 44
l51 0 0 -84 c0 -58 -4 -86 -12 -88 -7 -3 -42 4 -77 15 -37 11 -67 15 -72 10
-6 -6 -3 -65 7 -146 9 -75 14 -143 11 -152 -6 -13 -43 -15 -277 -15 -238 0
-271 2 -277 16 -3 9 1 77 10 152 9 76 13 140 8 145 -5 5 -37 0 -72 -10 -35
-11 -70 -18 -77 -15 -8 2 -12 30 -12 88 l0 84 50 0 c45 0 53 -4 98 -49z m784
32 c34 -31 13 -93 -33 -93 -16 0 -19 7 -19 55 0 60 15 71 52 38z m-1038 -218
c4 -55 9 -124 13 -152 5 -48 3 -53 -14 -53 -22 0 -23 9 -39 255 l-7 100 20
-25 c16 -20 22 -47 27 -125z"/>
<path d="M552 703 c4 -36 33 -39 33 -3 0 16 -6 26 -18 28 -15 3 -18 -2 -15
-25z"/>
<path d="M814 715 c-8 -21 3 -48 19 -43 19 7 22 58 2 58 -8 0 -18 -7 -21 -15z"/>
</g>
</svg>
