<svg width="180" height="180" viewBox="0 0 180 180" fill="none" xmlns="http://www.w3.org/2000/svg">
<path d="M44 149H62V91.7L66.8 92.3C78.2 93.6 89.9 99.9 98.5 109.2L104.4 115.5L98.9 116.2C95.9 116.5 89.6 116.8 84.8 116.9L76 117V123.2L108 122.4L110 128.5C111.1 131.8 112.3 137.8 112.7 141.7L113.3 149H131.3L130.7 140.1C130.3 134.2 129.2 128.3 127.2 122.4L124.2 113.5L127.7 109.6C129.7 107.5 132.4 103.2 133.9 100.1C136.3 94.9 136.5 93.5 136.5 81C136.5 68.4 136.3 67.1 133.8 61.7C130 53.6 126.1 49.1 119.8 45.3C110.7 39.8 105.4 39 79.3 39H56V73H51V38H44V149ZM101.3 46C109.3 47.3 118.5 51.6 122.2 55.8C132.9 68 133.3 92.2 122.9 105L120.9 107.5L118.2 104C105.1 87.1 90.3 77.8 71.1 74.5C66.5 73.7 62.6 73 62.4 73C61.7 73 62 46.3 62.7 45.7C63.7 44.7 94.7 44.9 101.3 46ZM56 142H51V80H56V142ZM71.8 81.6C87 84.7 101 93.5 111.3 106.5C115.2 111.4 115.2 111.4 113 112.4C111.1 113.3 110.5 113 109.2 111C108.3 109.6 104.6 105.5 100.8 101.8C92.5 93.6 81.3 87.8 70 85.8C63.5 84.6 62.5 84.1 62.2 82.2C61.8 79.6 62 79.6 71.8 81.6ZM121 125.4C122.1 128.8 123.3 134 123.7 136.8C124.2 141.6 124.1 142 122.2 142C120.1 142 119 140.2 119 136.7C119 135.5 118 131.2 116.8 127.2C115 121.1 114.9 119.7 116 119C118.1 117.7 118.7 118.4 121 125.4Z" fill="black"/>
</svg>
