<svg width="180" height="180" viewBox="0 0 180 180" fill="none" xmlns="http://www.w3.org/2000/svg">
<path d="M38.6 43.2C32.9 52.3 22 72.1 22 73.5C22 75.3 86.6 144.5 89.2 145.5C90.2 145.8 91.6 145.8 92.3 145.3C94.2 144.2 158.1 75.8 158.7 74.2C159 73.6 154.6 65.8 149 57L138.8 41L113.1 41.2L87.5 41.5V46.5L111 46.8L134.5 47L139.4 54.8C142.1 59 145.9 64.8 147.7 67.7L151 72.9L135.3 89.7C126.7 98.9 119.3 106.6 119 106.7C118.7 106.9 104 92.1 86.2 74L53.8 41H46.9C40.9 41 39.9 41.3 38.6 43.2ZM81.9 79.6L114.1 112.2L109.4 117.4C106.8 120.2 101.5 125.8 97.7 129.8L90.7 137.1L88.3 134.8C84.2 131 30.5 73.9 30.2 73C30 72.6 33.1 66.5 37.1 59.6C43.5 48.2 44.5 47 47 47C49.3 47 55.1 52.4 81.9 79.6Z" fill="black"/>
</svg>
