<svg width="488" height="161" viewBox="0 0 488 161" fill="none" xmlns="http://www.w3.org/2000/svg">
<path fill-rule="evenodd" clip-rule="evenodd" d="M46.913 2.18344C42.555 5.12044 39.682 10.2314 36.111 21.4034C34.528 26.3534 28.735 42.1034 23.238 56.4034C10.121 90.5224 0 119.839 0 123.716C0 128.287 3.288 130.903 9.034 130.903C12.241 130.903 14.195 130.345 15.313 129.11C17.633 126.546 24.388 111.666 27.079 103.191L29.369 95.9794L35.935 94.5174C39.546 93.7134 45.539 92.7444 49.252 92.3624L56.005 91.6704L57.386 95.0364C58.146 96.8884 59.717 104.18 60.878 111.241C63.998 130.215 66.472 133.992 74.351 131.817C78.754 130.601 83.361 125.392 82.602 122.489C82.301 121.342 80.431 112.078 78.444 101.903C76.458 91.7284 72.654 72.6034 69.992 59.4034C67.329 46.2034 64.422 29.3284 63.532 21.9034C62.642 14.4784 61.697 7.37944 61.431 6.12844C60.131 -0.0065589 53.026 -1.93656 46.913 2.18344ZM438.131 7.46444C435.883 10.3224 434.426 16.7084 433.469 27.9034C432.308 41.4704 428.071 75.8634 424.916 97.3214C421.447 120.915 421.486 127.663 425.115 131.525C428.269 134.883 434.765 134.846 437.953 131.453C439.86 129.423 440.495 126.983 441.657 117.203C442.428 110.713 443.691 100.135 444.463 93.6974C446.109 79.9804 448.15 74.7544 454.098 69.0404C458.616 64.6984 465.436 61.9394 467.226 63.7294C469.201 65.7044 469.999 81.0554 469.353 104.653C468.737 127.191 468.818 129.044 470.5 130.903C472.724 133.361 479.534 133.618 482.749 131.366C483.955 130.521 485.392 128.159 485.94 126.116C486.489 124.074 486.997 108.903 487.069 92.4034C487.205 61.4394 486.649 55.9274 482.602 48.1004C478.457 40.0854 473.223 39.2734 461.251 44.7874C456.337 47.0514 451.731 48.9034 451.015 48.9034C449.492 48.9034 450.041 40.5864 452.471 26.8414C454.681 14.3454 454.489 10.3014 451.545 7.35844C448.003 3.81544 440.957 3.87144 438.131 7.46444ZM376.096 7.16844C371.39 9.58644 369.944 13.0024 367.917 26.4864C364.728 47.7044 365.092 47.2344 350.9 48.4724C343.214 49.1424 342.224 49.4804 339.25 52.4544C335.213 56.4904 334.784 62.0874 338.18 66.4054C340.345 69.1574 340.421 69.1724 349.347 68.5934C361.222 67.8244 362 68.2914 361.999 76.1884C361.997 85.0384 359.295 107.271 356.444 121.903C353.317 137.947 353.332 138.506 356.95 140.377C361.871 142.922 366.435 142.363 369.386 138.856C373.853 133.547 374.6 129.716 381.016 79.2224C382.339 68.8154 383.696 64.9694 386.411 63.9374C387.603 63.4844 392.16 62.7884 396.539 62.3904C406.47 61.4884 410.431 59.9044 412.434 56.0314C414.591 51.8594 414.394 48.2974 411.866 45.7694C409.865 43.7684 409.074 43.6754 399.116 44.2764C393.277 44.6284 387.888 44.5194 387.141 44.0334C384.778 42.4984 384.682 34.7964 386.892 23.9604C389.442 11.4604 389.566 7.33444 387.418 6.51044C384.785 5.49944 378.649 5.85644 376.096 7.16844ZM209.882 42.2844C192.103 48.6374 179.152 71.7544 182.017 92.0204C183.89 105.277 190.698 113.145 204.478 117.982C213.369 121.103 226.32 120.474 234.351 116.53C242.18 112.686 250.005 104.67 254.148 96.2514C257.325 89.7934 257.497 88.8904 257.439 78.9214C257.359 65.0524 255.03 58.7094 247.112 50.7914C239.766 43.4454 233.162 40.8864 221.712 40.9474C217.196 40.9714 211.872 41.5734 209.882 42.2844ZM289.3 43.7654C283.137 45.8954 276.732 50.1374 274.472 53.5864C273.579 54.9494 272.357 58.7104 271.755 61.9464C269.734 72.8124 273.649 79.4024 288.171 89.5814C297.187 95.9014 302 101.041 302 104.349C302 107.035 297.232 111.556 293.379 112.523C292.022 112.863 288.315 112.413 285.14 111.522C277.479 109.373 275.611 109.473 272.433 112.207C270.397 113.959 269.728 115.487 269.647 118.578C269.589 120.815 270.135 123.361 270.861 124.236C272.843 126.624 282.569 129.938 289.492 130.585C309.359 132.44 324.965 115.325 319.955 97.1764C318.404 91.5554 309.343 81.8604 299.321 75.0954C292.944 70.7914 291.402 68.4224 292.397 64.4574C293.76 59.0284 303.138 58.8324 312.891 64.0304C315.856 65.6104 319.528 66.9034 321.052 66.9034C324.498 66.9034 329.003 61.8964 328.993 58.0764C328.98 52.6654 322.562 46.4244 313.849 43.3504C308.159 41.3424 295.702 41.5534 289.3 43.7654ZM113.326 43.8824C103.127 46.0594 100.576 48.9194 98.589 60.4034C93.738 88.4494 89.972 152.244 92.849 157.622C94.414 160.544 98.988 161.353 103.438 159.493C108.532 157.365 110.773 151.838 112.063 138.221C112.626 132.279 113.405 127.119 113.793 126.756C114.182 126.392 119.032 125.613 124.571 125.023C130.11 124.433 136.41 123.213 138.571 122.311C149.599 117.709 164.37 104.979 168.834 96.2294C173.212 87.6474 173.394 74.0614 169.254 64.7824C167.007 59.7444 159.17 52.0514 153.163 48.9864C144.664 44.6504 122.833 41.8534 113.326 43.8824ZM50.322 53.4034C51.161 57.2534 52.149 63.3494 52.518 66.9494C53.162 73.2324 53.09 73.5414 50.725 74.6194C47.524 76.0774 39.43 77.2824 37.587 76.5754C36.338 76.0954 36.339 75.1974 37.599 69.7134C39.186 62.8084 43.703 48.4994 45.232 45.5364C46.764 42.5684 48.568 45.3564 50.322 53.4034ZM226.746 59.4414C231.89 61.5914 233.926 63.6434 236.632 69.4034C241.178 79.0814 238.548 91.0014 230.379 97.7494C220.932 105.551 207.945 103.596 202.848 93.6054C196.487 81.1364 208.041 58.1614 220.782 57.9424C222.037 57.9214 224.721 58.5954 226.746 59.4414ZM137.282 62.3404C150.908 67.2014 155.666 78.6574 149.2 91.0354C144.303 100.408 133.023 106.886 118.75 108.52L113 109.178L113.018 101.791C113.036 94.5114 114.978 78.3544 117.054 68.2174C117.925 63.9594 118.597 62.8554 120.808 62.0464C124.687 60.6274 132.89 60.7734 137.282 62.3404Z" fill="black"/>
</svg>
