<svg width="300" height="354" viewBox="0 0 300 354" fill="none" xmlns="http://www.w3.org/2000/svg">
<path fill-rule="evenodd" clip-rule="evenodd" d="M136.5 1.04001C128.689 2.25701 118.247 5.42101 109.5 9.22101C102.788 12.137 88.793 20.502 88.229 21.936C88.081 22.314 83.729 27.946 78.559 34.452C70.205 44.964 68.825 47.293 66.148 55.39C60.484 72.527 59.823 78.891 59.459 119.839C59.154 154.199 59.282 157.788 61.074 164.839C66.396 185.787 81.939 207.954 96.78 215.763C106.876 221.076 107.147 220.382 98.33 211.792C82.377 196.251 73.632 180.018 70.466 160.07L69.763 155.64L81.132 167.07C91.364 177.358 99.895 183.813 105.5 185.508C107.11 185.995 107.018 185.761 105.025 184.306C92.861 175.427 83.918 165.628 79.468 156.298C76.757 150.614 74.305 141.362 75.258 140.409C75.587 140.079 79.827 143.831 84.678 148.746C94.326 158.52 100.56 162.54 112 166.368C116.125 167.748 121.665 170.006 124.312 171.384C136.122 177.537 157.033 178.642 175 174.064C186.419 171.154 201.983 163.418 210.296 156.519C216.466 151.399 226 140.089 226 137.89C226 137.4 226.872 137 227.939 137C229.471 137 230.019 137.947 230.555 141.516C232.647 155.468 225.444 181.737 215.822 195.25C214.7 196.826 213.987 198.32 214.237 198.57C214.882 199.216 222.259 188.458 225.272 182.478C231.941 169.241 234.793 153.111 233.117 138.101C232.123 129.193 232.155 128.935 235.066 122.514C239.305 113.167 240.968 104.959 240.985 93.315C241.014 73.441 234.868 55.007 221.535 34.979C210.027 17.693 196.547 7.90001 177.5 2.98701C168.245 0.600007 146.078 -0.452993 136.5 1.04001ZM173.077 16.429C195.146 21.107 216.753 39.267 227.404 62.089C231.423 70.699 234.015 84.258 233.97 96.426C233.933 106.011 233.198 105.223 229.64 91.789C224.255 71.455 213.097 54.734 197.344 43.391C189.168 37.504 176.244 31.601 167 29.533C152.42 26.269 130.735 27.758 115.25 33.086C112.182 34.141 109.51 34.843 109.312 34.646C107.381 32.714 119.303 24.252 129.124 20.585C143.564 15.194 159.943 13.645 173.077 16.429ZM168.79 35.592C183.419 38.613 194.814 44.775 206.344 55.897C215.805 65.024 219.445 70.313 224.098 81.695C230.238 96.715 232.44 109.024 230.37 116.75C229.471 120.103 228.463 119.494 227.058 114.75C226.366 112.413 223.445 105.55 220.567 99.5C215.943 89.782 214.449 87.664 207.745 81.327C199.052 73.111 189.01 67.144 177.5 63.358C166.741 59.818 145.123 58.919 131.5 61.444C111.353 65.179 100.67 69.708 91.091 78.576C87.255 82.128 85 83.631 85 82.636C85 79.199 90.281 69.439 96.922 60.604C106.337 48.077 110.284 45.217 126 39.533C141.279 34.007 154.999 32.743 168.79 35.592ZM160.859 74.576C173.921 76.516 186.647 80.52 195.667 85.53C208.244 92.514 224.755 111.846 226.616 121.766C227.37 125.786 222.221 137.855 216.978 144.359C203.341 161.275 178.696 172.667 153.5 173.7C139.2 174.286 130.185 172.694 120.322 167.838C108.253 161.896 83.759 135.856 81.401 126.46C79.826 120.185 88.663 103.351 98.229 94.403C104.065 88.943 118.971 79.834 119.022 81.695C119.034 82.138 119.822 81.527 120.772 80.338C123.132 77.385 136.983 73.106 144.372 73.047C147.601 73.021 155.02 73.709 160.859 74.576ZM204.872 208.664C203.628 210.172 203.71 210.216 205.75 209.129C208.077 207.889 208.65 207 207.122 207C206.64 207 205.627 207.749 204.872 208.664ZM193.398 216.434C184.743 221.663 173.857 226.133 164.5 228.301C153.312 230.893 153.182 230.952 159.837 230.403C163.323 230.116 169.173 228.962 172.837 227.839C181.2 225.277 195.944 217.753 199.02 214.478C202.032 211.273 201.816 211.348 193.398 216.434ZM140 230.383C140 230.594 140.9 231.002 142 231.29C143.1 231.577 144 231.405 144 230.906C144 230.408 143.1 230 142 230C140.9 230 140 230.173 140 230.383ZM128 260C128 261.704 128.667 262 132.5 262H137V305.5V349H132.5C128.667 349 128 349.296 128 351C128 352.884 128.667 353 139.5 353C150.333 353 151 352.884 151 351C151 349.242 150.333 349 145.5 349H140V303.5V258H134C128.667 258 128 258.222 128 260ZM0 266.916C0 268.681 0.613 269 4 269H8V309V349H4C0.667 349 0 349.333 0 351C0 352.884 0.667 353 11.5 353C22.333 353 23 352.884 23 351C23 349.242 22.333 349 17.5 349H12V330.123V311.247L23.75 310.825C34.333 310.445 36.017 310.122 40.708 307.565C48.517 303.311 51.417 298.497 51.843 289.086C52.169 281.879 52.02 281.251 48.843 276.522C46.371 272.842 43.956 270.757 39.576 268.522C33.786 265.569 33.268 265.492 16.826 265.166C0.333 264.838 0 264.873 0 266.916ZM34.939 270.479C53.127 276.896 53.874 299.194 36.11 305.461C33.313 306.448 28.206 307 21.874 307H12V288V269H21.374C27.09 269 32.384 269.577 34.939 270.479ZM171.415 306.363C166.506 308.594 164 312.542 164 318.046C164 322.133 164.436 323.189 167.023 325.366C168.685 326.765 172.758 328.67 176.073 329.601C183.346 331.641 188 335.574 188 339.679C188 347.588 177.874 352.292 168.149 348.902C165.449 347.961 165 347.319 165 344.402C165 342.045 164.539 341 163.5 341C162.39 341 162 342.164 162 345.474C162 349.485 162.327 350.118 165.162 351.584C170.079 354.127 178.812 354.484 182.98 352.313C187.694 349.857 191 344.679 191 339.752C191 334.269 186.583 330.01 177.907 327.13C174.281 325.926 170.344 324.037 169.157 322.932C167.032 320.952 166.359 316.835 167.621 313.545C169.079 309.747 177.71 307.799 183.435 309.975C185.519 310.768 186 311.612 186 314.475C186 316.942 186.45 318 187.5 318C188.61 318 189 316.836 189 313.523C189 309.915 188.539 308.744 186.626 307.491C183.228 305.264 175.151 304.665 171.415 306.363ZM217.994 305.876C210.577 308.304 204.199 313.867 201.551 320.218C199.444 325.269 199.602 334.536 201.879 339.5C206.752 350.123 218.556 355.745 230.147 352.965C234.354 351.956 236.513 350.617 240.717 346.413L246 341.13V347.065V353H252C257.333 353 258 352.778 258 351C258 349.267 257.333 349 253 349H248V327.5C248 313.833 247.636 306 247 306C246.441 306 246 308.727 246 312.18V318.36L242.393 314.146C240.408 311.828 236.976 309.008 234.765 307.88C230.321 305.613 221.878 304.604 217.994 305.876ZM293.032 306.309C291.124 306.917 287.408 309.492 284.773 312.032C282.138 314.571 279.761 316.428 279.491 316.158C279.221 315.888 279 313.492 279 310.833V306H273.5C268.667 306 268 306.242 268 308C268 309.704 268.667 310 272.5 310H277V329.5V349H272C267.667 349 267 349.267 267 351C267 352.884 267.667 353 278.5 353C289.333 353 290 352.884 290 351C290 349.267 289.333 349 285 349H280V335.96C280 324.897 280.303 322.326 281.998 319.003C284.243 314.603 290.741 310.241 296.424 309.319C299.043 308.894 300 308.238 300 306.869C300 304.762 298.312 304.627 293.032 306.309ZM62 308C62 309.704 62.667 310 66.5 310H71V326.852C71 342.708 71.134 343.905 73.27 347.102C76.572 352.045 81.361 354.229 87.622 353.647C94.481 353.01 100.386 349.831 104.013 344.823L107 340.7V346.85V353H113C118.333 353 119 352.778 119 351C119 349.267 118.333 349 114 349H109V327.5V306H103C97.667 306 97 306.222 97 308C97 309.704 97.667 310 101.5 310H106L105.996 323.75C105.993 335.636 105.727 337.935 104.035 340.71C99.484 348.175 87.175 352.21 80.105 348.554C74.826 345.825 74 342.37 74 323.032V306H68C62.667 306 62 306.222 62 308ZM236.369 312.689C252.361 323.916 245.756 347.942 226.192 349.716C220.891 350.197 219.328 349.906 214.486 347.537C206.365 343.564 203.5 338.86 203.5 329.5C203.5 320.312 206.349 315.524 214.183 311.546C221.396 307.884 230.169 308.336 236.369 312.689Z" fill="black"/>
</svg>
