<svg width="818" height="262" viewBox="0 0 818 262" fill="none" xmlns="http://www.w3.org/2000/svg">
<path fill-rule="evenodd" clip-rule="evenodd" d="M285 131C285 261.333 285.01 262 287 262C288.99 262 289 261.333 289 131C289 0.667007 288.99 0 287 0C285.01 0 285 0.667007 285 131ZM85.821 38.497C53.707 43.902 25.596 64.871 10.745 94.5C-10.588 137.061 0.984009 190.464 37.994 220.257C72.57 248.09 118.724 251.2 157.392 228.301C168.417 221.773 184.773 205.417 191.301 194.392C210.199 162.481 211.68 127.288 195.505 94.5C175.265 53.472 131.035 30.888 85.821 38.497ZM108.385 43.415C114.573 45.278 120.877 50.566 125.93 58.134L130.029 64.271L119.764 69.439C114.119 72.282 108.066 75.476 106.313 76.536C103.131 78.461 103.119 78.461 99.313 76.178C97.216 74.92 91.492 71.895 86.594 69.456C81.695 67.016 77.481 64.814 77.229 64.563C76.454 63.787 81.203 56.751 85.937 51.663C91.375 45.817 95.764 43.371 103.091 42.102C103.416 42.046 105.798 42.637 108.385 43.415ZM81.806 47.75C79.826 49.813 76.609 54.028 74.657 57.118L71.108 62.735L65.836 61.368C62.937 60.615 57.625 59.986 54.032 59.968C46.317 59.931 46.625 59.499 58.947 53.088C65.328 49.768 80.902 44.252 84.453 44.053C84.977 44.024 83.786 45.688 81.806 47.75ZM133.873 47.555C143.895 50.907 156.183 56.869 157.515 59.024C157.88 59.615 155.827 60.006 152.309 60.016C149.114 60.024 143.974 60.626 140.886 61.353L135.272 62.674L132.223 57.587C130.545 54.789 127.403 50.587 125.24 48.25C123.077 45.913 121.744 44 122.277 44C122.81 44 128.029 45.6 133.873 47.555ZM606.368 60.935C597.81 61.593 595.801 62.549 593.454 67.088C591.289 71.276 591.475 192.648 593.656 198.098C595.436 202.547 596.122 202.867 605.588 203.667C618.496 204.758 630.838 201.149 637.462 194.346C646.738 184.82 648.19 176.464 648.12 133C648.068 99.833 647.421 89.106 644.992 81.081C642.843 73.984 638.878 68.749 633 65.251C629.49 63.162 618.397 59.865 615.856 60.155C615.11 60.24 610.84 60.591 606.368 60.935ZM446 61.752C442.022 62.212 439.21 64.357 437.81 68C436.251 72.057 436.664 202.154 438.24 203.228C439.908 204.366 450.742 203.658 452.076 202.324C452.651 201.749 453.52 194.59 454.005 186.417C454.737 174.088 455.185 171.338 456.635 170.278C457.596 169.575 458.902 169 459.536 169C461.464 169 463.939 172.433 464.629 176.066C464.988 177.955 465.658 180.238 466.117 181.14C466.577 182.042 467.19 185.192 467.479 188.14C468.125 194.715 469.423 201.257 470.393 202.827C471.253 204.218 482.811 204.406 484.931 203.064C486.53 202.052 486.395 201.215 480.107 173.071C478.948 167.884 478 162.579 478 161.28C478 159.351 480.747 154.253 483 152C485.504 149.496 489.654 138.881 490.43 133C490.683 131.075 491.329 126.479 491.865 122.786C493.564 111.076 491.091 90.625 487.054 83C481.962 73.381 480.357 70.952 478.75 70.432C477.788 70.12 477 69.422 477 68.88C477 68.338 474.188 66.579 470.75 64.971C464.435 62.017 454.685 60.748 446 61.752ZM529.5 62.523C523.811 64.513 521.392 68.002 520.606 75.351C519.694 83.882 519.61 190.4 520.511 196.307C521.685 204.001 523.176 204.535 542.41 204.15C551.232 203.973 559.185 203.436 560.083 202.956C562.1 201.876 563.498 191.799 562.015 189.027C560.699 186.569 559.204 186.168 549 185.534C542.603 185.137 540.191 184.587 539.25 183.312C538.443 182.219 538 178.017 538 171.464C538 158.723 538.913 157.516 548.587 157.469C552.094 157.451 555.384 157.001 555.9 156.469C557.25 155.072 558.015 142.896 556.885 140.785C556.122 139.359 554.651 139 549.576 139C544.956 139 542.617 138.511 541.008 137.207C538.861 135.469 538.78 134.697 538.346 111.957C538.1 99.056 538.166 87.043 538.492 85.262C539.267 81.037 541.563 79.933 550.656 79.417C559.304 78.925 561.732 77.918 562.6 74.458C563.43 71.151 562.189 63.239 560.692 62.293C558.408 60.849 533.766 61.031 529.5 62.523ZM684.873 61.661C683.428 61.908 681.235 63.186 679.999 64.501C677.802 66.84 677.743 67.509 677.394 94.197C677.198 109.214 677.098 127.35 677.173 134.5C677.248 141.65 677.261 159.527 677.203 174.227C677.122 194.646 677.397 201.255 678.37 202.227C679.629 203.487 690.89 203.804 692.785 202.633C693.28 202.327 693.982 195.571 694.343 187.62C694.704 179.67 695.274 172.449 695.61 171.574C696.466 169.342 700.859 168.411 702.467 170.12C704.182 171.944 706.742 180.257 707.511 186.5C708.364 193.432 710.194 201.256 711.311 202.75C712.608 204.486 723.113 204.369 725.543 202.592C727.237 201.353 727.327 200.783 726.294 197.842C725.649 196.004 724.364 190.9 723.44 186.5C722.515 182.1 721.333 176.7 720.812 174.5C720.292 172.3 719.62 167.705 719.319 164.288C718.811 158.52 718.983 157.805 721.728 154.288C731.037 142.359 734.979 121.04 731.896 99.291C729.343 81.286 722.817 70.488 710.812 64.405C706.785 62.364 704.046 61.81 696.659 61.544C691.622 61.362 686.318 61.415 684.873 61.661ZM776.025 62.778C773.537 64.793 769.693 79.016 767.992 92.5C767.436 96.9 766.507 102.975 765.927 106C765.347 109.025 764.489 115.059 764.021 119.409C763.554 123.759 762.689 129.159 762.1 131.409C761.511 133.659 760.092 141.8 758.946 149.5C757.801 157.2 756.203 167.775 755.396 173C753.154 187.508 752.065 196.169 752.031 199.75L752 203H758.477C766.911 203 766.961 202.925 771.024 184.354C772.638 176.976 775.443 174.694 783.53 174.179C791.072 173.699 794.221 175.197 796.337 180.27C797.799 183.775 799.531 190.98 800.552 197.812C801.044 201.099 801.757 202.337 803.554 203.02C807.026 204.341 815.904 203.047 816.964 201.067C817.502 200.062 817.284 196.321 816.406 191.461C815.614 187.082 814.507 180.125 813.946 176C813.385 171.875 812.541 166.25 812.071 163.5C811.601 160.75 810.033 150.4 808.586 140.5C807.14 130.6 805.325 119.35 804.553 115.5C803.781 111.65 802.641 105.125 802.019 101C798.827 79.828 794.77 64.653 791.735 62.527C788.603 60.333 778.852 60.49 776.025 62.778ZM396.706 62.801C391.796 63.056 390.787 63.438 390.097 65.301C389.159 67.832 389.522 194.549 390.48 198.909C391.181 202.099 393.108 202.965 399.559 202.986C407.733 203.014 407.222 206.615 406.942 150.944C406.677 98.548 406.387 67.287 406.146 65.285C405.906 63.288 402.842 62.482 396.706 62.801ZM61.201 66.107C64.115 66.716 66.901 67.589 67.39 68.047C67.903 68.527 67.328 71.228 66.033 74.419C64.797 77.464 62.811 83.665 61.62 88.197C59.529 96.156 59.336 96.468 55.978 97.312C54.065 97.792 47.895 99.719 42.266 101.593C36.637 103.467 31.637 105 31.154 105C29.954 105 27.999 94.804 28.006 88.583C28.014 81.233 29.655 76.388 33.625 71.993C39.375 65.629 49.037 63.566 61.201 66.107ZM166.888 67.428L170.275 69.194L158.388 81.114C148.815 90.714 146.376 92.691 145.861 91.268C144.016 86.168 138.927 70.301 138.729 69.032C138.129 65.189 160.183 63.933 166.888 67.428ZM86.036 75.282C91.711 78.187 96.511 81.032 96.701 81.603C97.089 82.767 86.079 91.649 82.685 92.912C81.483 93.359 77.195 94.043 73.155 94.432L65.81 95.14L66.534 91.82C67.424 87.731 71.911 74.136 73.157 71.75C73.659 70.787 74.441 70 74.893 70C75.346 70 80.36 72.377 86.036 75.282ZM134.891 75.75C136.066 78.912 137.889 84.537 138.943 88.25L140.859 95L138.679 94.98C137.481 94.969 133.394 94.511 129.598 93.963C123.54 93.087 121.857 92.326 115.848 87.743C112.081 84.871 109 82.2 109 81.808C109 81.074 130.533 70 131.96 70C132.398 70 133.717 72.588 134.891 75.75ZM176.679 77.75C178.612 82.346 178.826 92.569 177.147 100.159L175.896 105.818L170.198 103.517C167.064 102.252 161.575 100.421 158 99.448C154.425 98.475 151.297 97.511 151.05 97.306C150.463 96.82 173.213 74 174.285 74C174.734 74 175.812 75.688 176.679 77.75ZM465.139 81.652C466.591 83.033 469.291 87.388 471.139 91.331C474.492 98.483 474.5 98.536 474.469 113.5C474.439 128.299 474.395 128.592 471.204 135.352C467.817 142.529 465.708 144.857 460.136 147.566C454.103 150.5 454.043 150.198 453.943 116.445C453.856 87.136 454.191 81.874 456.314 79.186C457.736 77.385 461.865 78.539 465.139 81.652ZM624.201 82.039C625.686 83.624 627.396 86.758 628.001 89.003C629.499 94.568 630.223 139.064 629.115 157.5C628.135 173.813 626.573 179.618 622.249 183.019C619.728 185.002 614.538 185.629 612.32 184.219C609.498 182.424 608.831 170.169 609.165 126.256C609.526 78.903 609.453 79.518 614.823 78.722C618.985 78.105 621.274 78.915 624.201 82.039ZM705.295 80.762C709.361 84.431 713.896 95.491 715.127 104.739C716.442 114.613 715.23 128.843 712.652 133.794C711.877 135.282 710.682 137.702 709.995 139.172C708.372 142.644 700.881 148 697.648 148C695.44 148 695.045 147.466 694.509 143.75C694.171 141.412 694.031 126.675 694.198 111C694.537 78.992 694.849 77.32 700.277 78.405C701.977 78.745 704.235 79.806 705.295 80.762ZM24.775 104.219L25.822 107.938L20.874 110.983C18.152 112.657 13.918 115.878 11.463 118.141C9.00801 120.404 7.00001 122.023 7.00001 121.739C7.00001 121.456 8.12801 117.331 9.50701 112.574C11.818 104.599 16.965 93.049 20.881 87.05C22.462 84.627 22.514 84.756 23.114 92.535C23.452 96.916 24.2 102.174 24.775 104.219ZM113 92.344C113 92.43 108.725 92.5 103.5 92.5C98.275 92.5 94 92.408 94 92.296C94 92.184 96.058 90.52 98.573 88.6L103.146 85.108L108.073 88.648C110.783 90.595 113 92.258 113 92.344ZM190.454 96C193.769 102.55 199 117.02 199 119.642C199 120.49 196.312 118.995 192.284 115.908C188.59 113.076 184.54 110.292 183.284 109.719C180.577 108.486 180.639 109.204 182.483 100.5C183.298 96.65 183.987 91.7 184.014 89.5C184.061 85.691 184.137 85.595 185.614 87.5C186.466 88.6 188.644 92.425 190.454 96ZM125.217 102.641C128.122 105.193 130.703 107.459 130.952 107.676C131.201 107.893 124.681 114.805 116.465 123.035L101.525 138H81.263H61V130.308V122.617L73.398 110.308L85.796 98H102.865H119.933L125.217 102.641ZM786.892 105.75C787.482 109.463 789.098 119.602 790.483 128.283C793.69 148.391 793.685 150.406 790.424 153.667C788.255 155.836 787.216 156.158 783.846 155.706C774.35 154.433 774.147 152.108 780.152 113.515C782.346 99.414 782.469 99 784.469 99C785.363 99 786.181 101.278 786.892 105.75ZM75 100.279C75 100.432 72.148 103.385 68.662 106.84L62.324 113.121L63.291 107.115C64.161 101.714 64.523 101.067 66.879 100.704C70.33 100.172 75 99.927 75 100.279ZM137.43 100.887C137.731 101.374 137.283 102.35 136.434 103.054C135.149 104.121 134.528 103.973 132.723 102.168L130.556 100H133.719C135.459 100 137.129 100.399 137.43 100.887ZM57.443 109.687C57.049 113.365 56.44 117.448 56.089 118.759C55.425 121.243 45.987 134.831 44.851 134.938C43.507 135.066 32.59 112.01 33.545 111.061C34.612 110 54.748 103.044 56.83 103.017C57.875 103.004 58.006 104.428 57.443 109.687ZM159.922 105.975C164.929 107.611 170.128 109.527 171.476 110.234L173.927 111.518L169.081 121.509C161.673 136.78 162.415 136.428 155.869 127.773C150.88 121.177 150.232 119.751 149.592 113.959C149.199 110.406 148.631 106.487 148.33 105.25C147.604 102.263 148.792 102.337 159.922 105.975ZM143.9 111.424C143.992 113.199 143.805 113.166 141.501 111.001C139.113 108.757 139.079 108.57 140.743 106.732C142.451 104.844 142.495 104.852 143.142 107.155C143.504 108.445 143.845 110.366 143.9 111.424ZM145.192 125.928C145.573 127.893 145.911 131.412 145.942 133.75L146 138H127.764H109.529L122.483 125.017L135.437 112.034L139.969 117.195C142.668 120.269 144.78 123.8 145.192 125.928ZM33.25 125.368C36.413 131.615 39 137.013 39 137.363C39 137.713 31.575 138 22.5 138C8.31001 138 6.00001 137.784 6.00001 136.46C6.00001 133.616 9.79901 127.534 14.167 123.384C18.194 119.558 25.796 113.994 26.982 114.004C27.267 114.007 30.087 119.12 33.25 125.368ZM187.47 119.25C194.052 124.208 198.922 130.384 200.481 135.75L201.135 138H183.984C174.551 138 166.983 137.662 167.167 137.25C170.836 128.993 178.75 114.119 179.5 114.068C180.05 114.031 183.636 116.363 187.47 119.25ZM54.656 137.677C54.39 137.944 53.224 138.013 52.065 137.831L49.959 137.5L52.229 134.298L54.5 131.096L54.821 134.144C54.997 135.821 54.923 137.41 54.656 137.677ZM155.995 137.25C155.998 137.662 154.875 138 153.5 138C151.271 138 151.004 137.593 151.036 134.25L151.072 130.5L153.531 133.5C154.883 135.15 155.992 136.838 155.995 137.25ZM36.004 149.616C33.878 153.255 31.155 158.654 29.953 161.615L27.769 166.998L23.782 164.757C17.804 161.398 12.028 156.114 8.84401 151.093C3.67901 142.948 3.58801 143 22.935 143H39.87L36.004 149.616ZM55 146C55 147.65 54.806 149 54.568 149C54.331 149 53.175 147.65 52 146L49.864 143H52.432C54.619 143 55 143.445 55 146ZM83.696 155.75L70.902 168.5L65.983 163L61.064 157.5L61.032 150.25L61 143H78.745H96.49L83.696 155.75ZM145.625 150.121C144.829 158.685 144.283 159.522 131.254 172.16C121.54 181.581 121.152 181.837 115.515 182.541C112.336 182.939 104.431 183.045 97.948 182.778L86.162 182.293L80.518 177.471L74.875 172.65L89.675 157.825L104.475 143H125.381H146.287L145.625 150.121ZM156 143.306C156 143.474 154.875 145.136 153.5 147L151 150.389V146.694C151 143.42 151.284 143 153.5 143C154.875 143 156 143.138 156 143.306ZM200.001 145.996C199.529 147.644 198.207 150.304 197.065 151.909C194.454 155.576 186.259 162.922 182.1 165.324L178.942 167.148L176.014 160.691C174.404 157.14 171.717 151.912 170.043 149.073C168.369 146.235 167 143.707 167 143.456C167 143.205 174.619 143 183.93 143H200.86L200.001 145.996ZM170.115 160.844C172.332 165.433 174.001 169.294 173.823 169.425C171.777 170.934 149.03 178.367 148.401 177.732C148.274 177.604 148.695 173.593 149.335 168.819C150.434 160.631 150.812 159.712 156 152.648L161.5 145.158L163.792 148.829C165.053 150.848 167.898 156.255 170.115 160.844ZM50.823 153.147C55.583 159.382 55.97 160.333 57.052 168.462C57.686 173.228 58.009 177.325 57.769 177.565C57.252 178.081 36.13 171.426 34.102 170.107C32.918 169.338 32.969 168.531 34.432 164.849C37.006 158.374 44.082 145.854 44.972 146.199C45.399 146.365 48.032 149.491 50.823 153.147ZM20 168.766C23.025 170.705 25.576 172.34 25.668 172.398C25.76 172.455 25.198 174.963 24.418 177.969C23.638 180.976 23 186.064 23 189.277C23 192.819 22.616 194.881 22.024 194.515C18.88 192.572 9.81901 171.772 7.55601 161.303L6.86401 158.106L10.682 161.672C12.782 163.634 16.975 166.826 20 168.766ZM198.055 164.712C196.247 171.918 192.203 181.748 188.14 188.815L184.509 195.129L183.344 186.815C182.703 182.242 181.875 177.125 181.503 175.445C180.866 172.561 181.153 172.189 186.664 168.777C189.874 166.79 193.817 163.782 195.427 162.093C197.037 160.403 198.557 159.224 198.805 159.472C199.054 159.72 198.716 162.078 198.055 164.712ZM66.045 173.445C63.968 175.948 63 175.259 63 171.278V167.556L65.168 169.723C66.98 171.536 67.124 172.146 66.045 173.445ZM143.458 171.75C142.153 179.483 142.397 179.243 134.5 180.561L130.5 181.229L136.971 174.614C140.53 170.976 143.588 168 143.766 168C143.945 168 143.806 169.688 143.458 171.75ZM44.223 195.24C31.698 207.839 31.411 207.95 29.131 201.101C27.2 195.299 27.772 184.709 30.466 176.4C30.694 175.697 35.349 176.78 43.359 179.4L55.895 183.5L44.223 195.24ZM177.071 180.25C178.735 187.131 178.751 196.541 177.105 201.336C175.381 206.358 170.61 211.703 166.105 213.66C159.446 216.552 137.009 214.916 138.386 211.639C140.306 207.071 146 188.642 146 186.997C146 184.635 147.52 183.891 158.328 180.969C162.633 179.804 168.033 178.017 170.328 176.996C172.623 175.976 174.793 175.109 175.15 175.071C175.508 175.032 176.372 177.363 177.071 180.25ZM75.598 180.735C75.382 180.952 73.563 180.821 71.556 180.444C68.048 179.786 67.973 179.687 69.623 177.864C71.303 176.008 71.386 176.014 73.665 178.155C74.945 179.357 75.815 180.518 75.598 180.735ZM77.503 186.828C82.622 187.487 84.576 188.402 90.779 193.045C97.401 198 97.894 198.607 96.277 199.817C92.63 202.546 74.544 210.944 73.84 210.236C72.843 209.234 66 188.645 66 186.648C66 185.45 66.688 185.176 68.75 185.552C70.263 185.828 74.201 186.402 77.503 186.828ZM141 185.618C141 185.958 139.156 191.78 136.903 198.556C132.176 212.77 134.011 212.101 119.57 204.873C107.771 198.967 107.879 199.303 115.744 193.007C122.036 187.969 123.049 187.518 130.5 186.43C140.98 184.901 141 184.899 141 185.618ZM61 189.623C61 190.516 62.588 195.994 64.53 201.796C67.098 209.469 67.739 212.543 66.882 213.073C66.234 213.473 62.422 214.289 58.411 214.886C50.873 216.007 43.956 215.304 38.627 212.876L35.898 211.632L47.683 199.816C54.165 193.317 59.813 188 60.234 188C60.655 188 61 188.731 61 189.623ZM109.944 190.572C103.585 195.322 103.368 195.349 98.489 191.993C96.02 190.294 94 188.701 94 188.452C94 188.203 98.362 188 103.694 188H113.389L109.944 190.572ZM121.237 212.047L129.973 216.237L128.237 219.276C125.169 224.644 115.623 234.261 111.5 236.136C103.979 239.558 95.97 238.228 89.073 232.413C85.539 229.434 77 218.461 77 216.9C77 216.416 79.813 214.729 83.25 213.151C86.688 211.573 92.604 208.464 96.398 206.242L103.296 202.201L107.898 205.029C110.429 206.585 116.432 209.743 121.237 212.047ZM73.182 221.25C74.036 223.037 76.885 227.138 79.513 230.361L84.291 236.223L80.896 235.507C74.024 234.057 65.273 230.705 56.5 226.161L47.5 221.5L55.5 220.785C59.9 220.392 64.85 219.643 66.5 219.121C71.136 217.655 71.524 217.778 73.182 221.25ZM142.5 219.483C146.35 220.298 151.525 220.987 154 221.014L158.5 221.062L154.5 223.607C146.58 228.646 128.072 236 123.31 236C122.383 236 123.395 234.224 126.016 231.25C128.318 228.637 131.324 224.588 132.696 222.25C134.068 219.912 135.26 218 135.345 218C135.431 218 138.651 218.667 142.5 219.483Z" fill="black"/>
</svg>
