<svg width="849" height="130" viewBox="0 0 849 130" fill="none" xmlns="http://www.w3.org/2000/svg">
<path fill-rule="evenodd" clip-rule="evenodd" d="M586.347 1.09499C563.546 4.90399 544.819 22.823 538.339 47.032C535.973 55.872 535.941 74.234 538.278 83C542.973 100.615 553.668 114.946 567.5 122.158C577.182 127.206 583.842 128.995 595.518 129.684C628.321 131.62 653.183 114.063 661.017 83.432C663.422 74.03 663.634 58.697 661.501 48.5C657.81 30.862 645.188 14.093 630 6.649C617.969 0.752995 601.179 -1.38301 586.347 1.09499ZM32.797 61.25L9.244 121.5L4.622 121.805C0.079 122.104 0 122.169 0 125.555V129H16.5H33V125.5V122H25.433C18.485 122 17.914 121.846 18.461 120.123C18.789 119.09 21.211 112.903 23.845 106.373L28.633 94.5H54.467H80.3L86.078 108L91.855 121.5L85.928 121.798L80 122.095V125.548V129H102.5H125V125.5C125 122.044 124.946 122 120.71 122H116.42L101.04 85.25C92.581 65.037 81.179 37.813 75.701 24.75L65.742 0.999993H61.046H56.35L32.797 61.25ZM178 4.49999V7.99999H184H190V48.951C190 75.222 190.4 91.801 191.115 95.201C194.903 113.212 207.228 124.866 226.338 128.507C250.843 133.175 271.183 126.49 280.416 110.733C285.663 101.778 286 98.186 286 51.29V7.99999H292.5H299V4.49999V0.999993H282H265V4.49999V7.99999H271.548H278.096L277.798 52.774L277.5 97.547L274.208 104.232C268.467 115.889 260.597 120.671 245.448 121.707C230.785 122.709 220.701 117.707 216.175 107.185C212.807 99.357 212 87.674 212 46.776V7.99999H218.5H225V4.49999V0.999993H201.5H178V4.49999ZM358 21V41H361.353H364.707L365.323 33.713C366.437 20.525 369.616 14.367 377.28 10.548C381.852 8.269 383.587 7.99999 393.696 7.99999H405V58.853C405 86.823 404.711 112.473 404.358 115.853L403.715 122H395.858H388V125.5V129H416H444V125.5V122H435.5H427V65V7.99999L437.25 8.00599C450.164 8.01299 454.532 9.20699 459.08 13.974C462.922 18.002 465.328 24.852 466.553 35.25C467.203 40.765 467.349 41 470.115 41H473V21V0.999993H415.5H358V21ZM726 4.49999V7.99999H732.5H739V65V122H732.5H726V125.5V129H753.5H781V125.5V122H771.5H762V96V70H772.304C781.342 70 783.235 70.313 787.722 72.549C796.285 76.816 800.572 84.071 805.717 103C809.466 116.792 812.669 123.26 816.809 125.401C820.963 127.549 830.386 129 840.184 129H849V125.5C849 122.219 848.797 122 845.75 121.996C841.613 121.992 836.503 118.895 834.69 115.294C833.915 113.757 831.389 106.575 829.075 99.333C823.001 80.326 816.961 72.937 804.291 69.017L798.683 67.282L802.592 66.55C813.011 64.6 823.358 57.044 827.689 48.224C830.154 43.204 830.494 41.394 830.455 33.5C830.419 26.193 829.976 23.609 828.101 19.762C825.291 13.999 820.358 9.51099 813.26 6.26199C803.705 1.88699 795.291 1.073 759.25 1.035L726 0.999993V4.49999ZM613.77 9.97199C623.604 14.248 632.358 26.512 636.631 42C638.011 47 638.434 52.307 638.462 65C638.498 80.529 638.331 82.017 635.623 90.278C628.115 113.19 615.137 124.066 596.864 122.758C577.071 121.342 564.815 105.367 560.99 76C558.844 59.525 561.504 39.733 567.525 27.379C572.398 17.379 580.564 10.417 590.383 7.891C596.055 6.431 608.089 7.50199 613.77 9.97199ZM791.833 9.54299C802.622 12.747 807 19.95 807 34.497C807 45.826 804.85 52.484 799.542 57.595C794.097 62.837 789.471 64 774.057 64H762V36V7.99999H774.318C782.509 7.99999 788.378 8.51699 791.833 9.54299ZM66.047 59.568C72.108 74.252 76.893 86.44 76.681 86.652C76.469 86.865 66.198 86.917 53.857 86.769L31.418 86.5L41.504 60C47.052 45.425 51.938 32.6 52.362 31.5C53.405 28.8 53.026 28.023 66.047 59.568Z" fill="black"/>
</svg>
