<svg width="408" height="144" viewBox="0 0 408 144" fill="none" xmlns="http://www.w3.org/2000/svg">
<path fill-rule="evenodd" clip-rule="evenodd" d="M0 72V144H204H408V72V0H204H0V72ZM404 72.5V141H204H4V72.5V4H204H404V72.5ZM343.5 22C343.127 22.604 344.49 23 346.941 23H351V40.5C351 51.5 350.629 58 350 58C349.45 58 349 57.599 349 57.109C349 55.606 341.206 53 336.73 53.006C330.22 53.014 325.231 54.797 320.988 58.63C315.096 63.953 313.5 69.255 313.5 83.5C313.5 94.643 313.702 95.911 316.324 101.251C320.208 109.16 325.793 112.514 335 112.466C342.404 112.428 347.456 110.289 349.204 106.452C350.631 103.32 352 103.304 352 106.418C352 111.912 352.222 112 366.107 112C373.424 112 379 111.596 379 111.066C379 110.553 377.762 109.99 376.25 109.816L373.5 109.5L373.24 65.25L372.979 21H358.549C350.007 21 343.866 21.408 343.5 22ZM112.315 24.41C103.285 28.49 104.394 42.413 113.954 44.988C118.829 46.3 124.794 44.99 127.487 42.014C128.494 40.902 129.498 37.868 129.759 35.153C130.172 30.856 129.891 29.916 127.364 27.134C123.895 23.316 117.354 22.132 112.315 24.41ZM30 28.5C30 29.548 31.056 30 33.5 30H37V69.5V109H33.5C31.056 109 30 109.452 30 110.5C30 111.801 34.154 112 61.389 112H92.777L93.345 108.75C94.668 101.181 95.258 84 94.195 84C93.602 84 91.668 86.72 89.896 90.044C83.023 102.938 75.216 108.936 65.25 108.978L60 109V69.548V30.095L66.171 29.798C69.991 29.613 72.498 29.024 72.754 28.25C73.076 27.276 68.403 27 51.583 27C33.065 27 30 27.213 30 28.5ZM155.25 35.702L145 38.179V46.09V54H141.5C139.575 54 138 54.45 138 55C138 55.55 139.575 56 141.5 56H145V78.54C145 104.403 145.653 107.12 152.7 110.602C158.218 113.328 171.222 113.251 175.965 110.465C179.815 108.203 182.825 103.712 184.008 98.463C185.08 93.71 183.328 94.068 182.036 98.866C179.91 106.761 172.063 110.784 168.557 105.777C167.254 103.917 167 99.68 167 79.777V56H175C179.667 56 183 55.583 183 55C183 54.417 179.667 54 175 54H167V43.5C167 37.725 166.662 33.051 166.25 33.113C165.838 33.175 160.887 34.34 155.25 35.702ZM208.734 54.024C198.982 56.487 191.326 63.334 188.868 71.792C188.116 74.381 187.514 80.126 187.532 84.558C187.559 91.452 187.992 93.473 190.532 98.558C195.679 108.863 206.68 113.955 221 112.659C231.133 111.742 234.808 110.287 239.929 105.166C245.283 99.813 248 92.26 248 82.734C248 63.499 239.339 54.214 220.656 53.42C216.17 53.23 210.806 53.501 208.734 54.024ZM290.5 54.356C287.396 55.793 284.089 59.026 282.167 62.5C281.243 64.17 281.056 63.634 281.03 59.25L281 54H266.5C257.5 54 252 54.379 252 55C252 55.55 253.575 56 255.5 56H259V83V110H255.5C253.575 110 252 110.45 252 111C252 111.631 258.833 112 270.5 112C282.167 112 289 111.631 289 111C289 110.45 287.2 110 285 110H281L281.01 90.25C281.019 71.495 281.141 70.239 283.427 65.33C285.967 59.874 288.255 58 292.375 58C295.356 58 296.36 59.289 295.497 62.009C295.094 63.278 293.983 64 292.433 64C290.219 64 290 64.402 290 68.461C290 74.456 292.671 77 298.966 77C304.678 77 307.616 75.015 309.066 70.174C310.505 65.371 308.985 59.274 305.544 56.041C302.493 53.175 294.892 52.323 290.5 54.356ZM100 55C100 55.55 101.575 56 103.5 56H107V83V110H103.5C101.575 110 100 110.45 100 111C100 111.63 106.667 112 118 112C129.333 112 136 111.63 136 111C136 110.45 134.425 110 132.5 110H129V82V54H114.5C105.5 54 100 54.379 100 55ZM220.711 55.8C224.08 57.941 225 63.723 224.994 82.718C224.991 93.048 224.522 103.182 223.951 105.238C222.18 111.613 216.446 112.845 212.6 107.678C210.698 105.122 210.467 103.249 210.147 87.828C209.708 66.613 210.387 60.522 213.543 57.366C215.943 54.966 218.514 54.404 220.711 55.8ZM346.961 57.979C350.198 59.712 351 64.663 350.996 82.899C350.993 98.632 350.784 100.842 349.027 103.723C346.903 107.207 342.669 108.903 340.095 107.301C337.075 105.421 336.114 99.841 336.081 84C336.05 68.877 337.01 60.898 339.175 58.289C340.443 56.761 344.391 56.604 346.961 57.979Z" fill="black"/>
</svg>
