<svg width="232" height="352" viewBox="0 0 232 352" fill="none" xmlns="http://www.w3.org/2000/svg">
<path fill-rule="evenodd" clip-rule="evenodd" d="M110.073 3.63501C108.143 6.08801 108 7.564 108 25.088C108 45.129 108.542 48.015 112.657 49.89C116.378 51.585 117.896 51.258 121.077 48.077L124 45.154V25.712C124 7.557 123.863 6.09501 121.927 3.63501C119 -0.0869942 113 -0.0869942 110.073 3.63501ZM34 35C32.817 36.183 32 38.333 32 40.263C32 43.131 33.748 45.271 46.429 57.93C58.841 70.319 61.296 72.333 63.985 72.333C68.286 72.333 71.4 69.021 71.4 64.445C71.4 61.145 70.232 59.685 57.38 46.922C44.455 34.088 43.072 33 39.68 33C37.333 33 35.275 33.725 34 35ZM174.62 46.922C161.768 59.685 160.6 61.145 160.6 64.445C160.6 69.021 163.714 72.333 168.015 72.333C170.704 72.333 173.159 70.319 185.571 57.93C198.252 45.271 200 43.131 200 40.263C200 35.837 197 33 192.32 33C188.928 33 187.545 34.088 174.62 46.922ZM107 63.973C87.443 67.714 70.657 82.42 64.985 100.783C62.479 108.897 62.302 123.285 64.612 131.068C70.159 149.753 84.302 163.537 103.045 168.525C126.141 174.671 152.839 162.351 163.777 140.5C168.931 130.203 170.573 114.478 167.64 103.5C161.65 81.078 142.122 64.961 119.275 63.582C114.999 63.323 109.475 63.5 107 63.973ZM130.328 81.975C137.327 84.649 146.526 93.205 149.84 100.123C158.853 118.934 151.107 141.418 132.457 150.575C127.021 153.244 125.582 153.5 116 153.5C106.422 153.5 104.978 153.244 99.554 150.581C91.711 146.73 85.553 140.406 81.766 132.313C79.16 126.745 78.669 124.469 78.592 117.613C78.484 108.049 79.852 102.93 84.264 96.381C94.449 81.263 113.153 75.414 130.328 81.975ZM2.455 111.455C-0.652999 114.563 -0.667999 118.111 2.411 121.694L4.822 124.5L22.138 124.819C31.662 124.994 40.952 124.856 42.783 124.513C49.818 123.193 52.348 116.257 47.545 111.455C45.102 109.011 44.998 109 25 109C5.002 109 4.898 109.011 2.455 111.455ZM184.455 111.455C180 115.909 182.078 122.978 188.302 124.54C189.596 124.864 198.872 124.988 208.916 124.815L227.177 124.5L229.589 121.694C232.668 118.111 232.653 114.563 229.545 111.455C227.102 109.011 226.998 109 207 109C187.002 109 186.898 109.011 184.455 111.455ZM46.288 175.288C33.139 188.438 32 189.866 32 193.216C32 195.956 32.651 197.367 34.635 198.927C39.724 202.93 41.243 202.092 56.716 186.752C64.62 178.915 71.33 171.532 71.628 170.345C72.721 165.992 68.458 161.085 63.538 161.032C61.043 161.005 58.323 163.254 46.288 175.288ZM163.913 162.282C161.441 164.18 159.776 167.971 160.372 170.345C160.67 171.532 167.38 178.915 175.284 186.752C190.757 202.092 192.276 202.93 197.365 198.927C199.349 197.367 200 195.956 200 193.216C200 189.866 198.861 188.438 185.712 175.288C173.677 163.254 170.957 161.005 168.462 161.032C166.833 161.049 164.786 161.612 163.913 162.282ZM110.073 185.635C108.137 188.095 108 189.557 108 207.712V227.154L110.923 230.077C112.531 231.685 114.815 233 116 233C117.185 233 119.469 231.685 121.077 230.077L124 227.154V207.531C124 188.031 123.985 187.894 121.545 185.455C118.104 182.014 112.856 182.096 110.073 185.635ZM55.656 266.109C52.564 267.946 51.028 273.411 49.996 286.239C49.454 292.983 48.007 306.825 46.781 317C45.555 327.175 44.54 339.1 44.526 343.5L44.5 351.5L47.631 351.804C49.778 352.013 51.607 351.382 53.451 349.796C56.777 346.935 57.662 341.391 61.615 298.659C63.577 277.453 64.075 268.338 63.337 267.159C62.077 265.147 58.174 264.613 55.656 266.109ZM179.455 281.455C176.123 284.786 176.109 289.637 179.426 291.148C183.618 293.058 189.175 290.6 190.461 286.267C190.945 284.638 190.443 283.352 188.608 281.517C185.433 278.342 182.586 278.323 179.455 281.455ZM81.363 296.25C69.635 304.088 64.495 320.638 70.25 332.03C72.873 337.221 77.266 340.44 84.665 342.591C91.393 344.547 97.135 343.736 103.893 339.876C113.183 334.571 117.566 326.142 116.774 315.109C115.719 300.416 107.793 293 93.145 293C87.003 293 85.68 293.365 81.363 296.25ZM123.223 297.557C119.039 300.487 120.816 306.439 128.628 315.659C131.033 318.497 133 321.301 133 321.891C133 322.48 130.141 326.008 126.647 329.731C119.602 337.237 118 339.739 118 343.234C118 346.429 119.79 348 123.431 348C125.919 348 127.741 346.631 133.587 340.373L140.712 332.746L146.221 339.623C155.463 351.16 158.352 352.739 162.545 348.545C165.823 345.267 165.357 343.625 158.553 334.5C153.48 327.696 151 323.765 151 322.526C151 322.193 153.879 318.856 157.397 315.109C166.975 304.912 168.864 300.419 164.777 297.557C160.73 294.722 158.814 295.652 150.403 304.532L142.305 313.081L137.096 305.545C130.385 295.836 127.802 294.349 123.223 297.557ZM178.159 300.601C176.902 301.481 175.412 303.394 174.847 304.851C173.168 309.181 169.187 343.266 170.08 345.664C171.679 349.961 178.497 349.726 182.016 345.253C183.573 343.273 183.999 341.2 183.997 335.615C183.996 331.702 184.964 322.686 186.148 315.581L188.301 302.662L186.04 300.831C183.258 298.579 181.135 298.517 178.159 300.601ZM99.287 306.76C106.437 313.23 105.183 324.788 96.759 330.057C89.977 334.3 80.975 329.253 81.022 321.234C81.072 312.688 88.555 303.261 94.366 304.423C96.018 304.754 98.232 305.805 99.287 306.76Z" fill="black"/>
</svg>
