<svg width="458" height="353" viewBox="0 0 458 353" fill="none" xmlns="http://www.w3.org/2000/svg">
<path fill-rule="evenodd" clip-rule="evenodd" d="M224.872 10.257C216.737 22.831 211.362 33.346 208.493 42.3C207.295 46.04 206.017 49.082 205.652 49.06C205.288 49.038 201.939 47.484 198.211 45.606C190.571 41.759 175.448 36.924 163.5 34.51C159.1 33.621 154.664 32.722 153.643 32.512C151.953 32.166 151.847 32.616 152.459 37.516C154.086 50.537 162.408 76.552 167.018 83.026C169.797 86.928 169.534 87.665 165.154 88.253C156.563 89.405 134.661 100.254 120.711 110.267L115.922 113.704L124.673 119.602C136.574 127.622 154.256 136.357 162.858 138.465L169.955 140.205L166.908 144.634C165.232 147.07 162.51 152.311 160.86 156.281C157.874 163.462 151.832 185.571 150.599 193.825C150.027 197.653 150.156 198.09 151.726 197.628C152.702 197.341 155.3 196.819 157.5 196.467C171.597 194.215 193.362 186.953 201.596 181.755L205.596 179.23L207.288 185.684C208.219 189.234 210.969 196.269 213.399 201.319C217.956 210.79 230.621 231 232 231C232.428 231 235.795 226.388 239.481 220.75C246.709 209.697 254.037 195.231 256.071 188C256.767 185.525 257.619 183.165 257.963 182.756C258.307 182.347 261.523 183.571 265.111 185.476C268.698 187.381 275.683 190.262 280.632 191.88C291.106 195.303 310.81 199.524 311.781 198.553C312.79 197.543 308.479 177.749 304.91 167C301.533 156.832 296.778 146.599 294.887 145.43C294.25 145.037 297.052 143.876 301.115 142.851C305.177 141.826 313 138.751 318.5 136.017C329.283 130.658 347 119.367 347 117.854C347 116.365 329.383 105.305 318.5 99.961C313 97.261 305.35 94.264 301.5 93.302C297.65 92.341 294.376 91.492 294.223 91.417C294.071 91.342 295.498 88.975 297.394 86.158C303.221 77.498 310.751 54.887 313.368 38.185L314.044 33.871L309.272 34.557C294.405 36.693 270.676 44.365 262.658 49.628C260.545 51.015 258.696 52.004 258.55 51.825C258.403 51.646 257.279 48.147 256.052 44.049C254.825 39.951 252.006 32.976 249.789 28.549C245.813 20.612 232.972 0.0140076 232 0.0140076C231.725 0.0140076 228.518 4.62401 224.872 10.257ZM236.781 24.25C242.743 34.699 246.601 43.667 247.951 50.222C248.927 54.96 248.863 56.988 247.575 62.014C246.72 65.352 245.384 69.298 244.606 70.782C243.198 73.47 243.212 73.488 248.346 75.564L253.5 77.647L256.596 71.074C259.996 63.856 263.353 60.048 269.478 56.463C273.83 53.914 292.102 47.571 298.358 46.437L302.217 45.737L301.493 49.118C300.172 55.293 295.811 68.417 293.049 74.53C289.183 83.088 285.212 87.145 276.995 90.933C273.093 92.731 270.044 94.495 270.218 94.851C270.393 95.208 271.427 97.885 272.518 100.8C273.938 104.599 274.925 105.958 276 105.597C276.825 105.32 280.2 104.126 283.5 102.944C290.757 100.345 297.053 100.786 306.298 104.543C313.249 107.368 331 116.986 331 117.927C331 118.264 326.387 121.094 320.75 124.216C310.056 130.138 297.16 135.018 292.324 134.974C289.931 134.952 280.147 131.95 275 129.657C273.897 129.166 272.97 130.24 271.5 133.711C270.4 136.308 269.38 138.694 269.234 139.013C269.088 139.333 271.338 140.445 274.234 141.485C281.884 144.233 288.792 151.522 292.731 161C296.501 170.072 300.733 185.6 299.714 186.62C298.569 187.764 280.403 182.281 271.456 178.09C262.122 173.718 258.014 169.432 254.836 160.75C253.679 157.588 252.507 155 252.232 155C251.957 155 249.992 155.521 247.866 156.158C243.453 157.481 243.189 158.618 245.91 164.61C248.896 171.185 249.333 176.15 247.542 183.144C245.596 190.737 233.942 213.5 232 213.5C230.058 213.5 218.404 190.737 216.458 183.144C214.657 176.113 215.095 171.044 218.099 164.123C220.698 158.137 220.551 157.496 216.25 156.093C214.188 155.421 211.94 154.638 211.256 154.354C210.54 154.056 209.559 155.038 208.943 156.669C204.582 168.219 199.723 173.263 188.427 177.966C181.067 181.03 162.954 186.287 162.235 185.569C161.312 184.645 167.348 165.055 170.844 157.63C175.44 147.868 179.19 144.007 187.659 140.317C192.482 138.216 193.873 137.168 193.366 136.019C192.997 135.184 191.958 132.436 191.057 129.914L189.419 125.329L182.982 127.736C175.11 130.68 168.446 130.782 160.672 128.08C154.491 125.931 139.106 118.115 135.121 115.098L132.743 113.297L141.621 108.243C160.821 97.313 170.608 95.03 181.5 98.939C184.8 100.124 188.185 101.323 189.023 101.604C190.078 101.957 191.245 100.676 192.819 97.436C194.069 94.863 194.958 92.649 194.796 92.516C194.633 92.383 191.497 90.856 187.827 89.123C184.156 87.389 179.967 84.561 178.516 82.837C173.471 76.841 168.496 64.966 164.629 49.688L163.157 43.876L166.329 44.548C172.963 45.953 188.728 51.355 194.124 54.071C202.74 58.408 205.251 61.304 209.869 72.227L211.867 76.954L216.347 75.293L220.826 73.633L218.795 68.567C214.066 56.769 214.325 50.877 220.137 38.015C223.707 30.116 231.111 17 232 17C232.354 17 234.505 20.262 236.781 24.25ZM225.355 82.039C219.217 83.254 212.052 87.233 207.25 92.093C203.002 96.392 202.118 98 204 98C206.019 98 209 102.08 209 104.845C209 108.942 205.885 111.405 201.586 110.708C198.455 110.2 198.071 110.401 197.54 112.823C195.883 120.387 201.546 134.67 208.697 140.964C213.983 145.618 214.743 145.828 215.18 142.759C215.659 139.403 220.232 137.518 223.75 139.227C226.205 140.419 226.492 141.081 226.43 145.399L226.36 150.236L234.001 149.794C243.293 149.256 249.376 146.571 256.193 140.001C261.007 135.361 262.175 133 259.655 133C257.386 133 255 129.511 255 126.194C255 121.888 258.957 119.168 263.001 120.694C265.603 121.677 265.839 121.554 266.36 118.951C267.206 114.718 265.438 105.797 262.673 100.353C258.672 92.476 249 83.981 249 88.345C249 90.441 245.606 93 242.826 93C239.112 93 236.687 89.809 237.181 85.573C237.74 80.787 235.327 80.066 225.355 82.039ZM226.777 90.557C231.306 93.728 228.635 102.017 223.095 101.985C218.332 101.957 215.331 97.889 216.944 93.646C218.634 89.202 222.92 87.855 226.777 90.557ZM256.014 101.81C260.334 105.309 257.694 113 252.174 113C246.371 113 243.55 104.83 248.223 101.557C251.129 99.521 253.273 99.591 256.014 101.81ZM235.777 110.557C237.327 111.642 238 113.135 238 115.485C238 119.609 235.798 122 232 122C228.202 122 226 119.609 226 115.485C226 112.002 228.777 109 232 109C232.855 109 234.555 109.701 235.777 110.557ZM216.744 120.203C218.51 121.668 218.308 127.549 216.429 129.429C214.796 131.061 210.312 131.511 208.4 130.235C204.636 127.722 204.804 121.403 208.695 119.087C210.629 117.936 214.692 118.499 216.744 120.203ZM244.114 130.061C248.172 132.233 248.452 138.663 244.6 141.235C242.684 142.514 238.724 142.061 236.829 140.345C234.201 137.967 234.421 132.519 237.223 130.557C239.836 128.726 241.409 128.613 244.114 130.061ZM2.25 259.651C1.37 260.014 0.999999 263.07 0.999999 269.976C0.999999 280.871 1.277 281.316 7.442 280.316C11.721 279.621 11.341 276.91 11.433 308.75L11.5 332H6.809C4.229 332 1.807 332.503 1.427 333.118C0.852999 334.047 0.580999 343.174 0.915999 350.268C0.993999 351.915 2.63 352.018 24.75 351.768L48.5 351.5L48.799 344.012C49.241 332.908 48.904 332.168 43.245 331.805L38.5 331.5L38.226 314.25C38.076 304.762 38.341 297 38.816 297C39.291 297 40.142 298.012 40.708 299.25C42.052 302.187 51.282 314.085 57.008 320.261C59.928 323.411 62.041 324.911 63.008 324.52C63.828 324.188 66.06 321.798 67.966 319.208C73.741 311.364 84.258 299 85.156 299C85.62 299 86 306.401 86 315.448V331.895L80.75 332.198L75.5 332.5L75.208 340.238C74.738 352.706 73.291 352 99.335 352C115.319 352 121.939 351.661 122.8 350.8C124.403 349.197 124.403 334.803 122.8 333.2C122.14 332.54 120.227 331.993 118.55 331.985C112.393 331.954 112.497 332.409 112.526 305.835L112.553 281.596L117.518 280.543C121.886 279.616 122.559 279.13 123.123 276.495C124.358 270.722 124.069 261.302 122.62 260.099C121.666 259.308 115.582 259.038 102.912 259.227L84.583 259.5L80.542 265.11C72.543 276.213 65.303 285.527 63.554 286.968C61.943 288.293 61.538 288.148 59.358 285.468C52.742 277.33 48.532 271.917 44.216 266L39.475 259.5L21.488 259.318C11.594 259.217 2.938 259.367 2.25 259.651ZM135.75 260.08C134.292 260.929 134 262.575 134 269.927C134 280.317 134.841 281.601 141.005 280.615L145 279.976V305.936V331.895L139.75 332.198L134.5 332.5V342V351.5L158.226 351.768L181.953 352.036L182.525 349.756C182.84 348.502 182.963 344.107 182.799 339.988L182.5 332.5L177.25 332.198L172 331.895V305.948V280H176.525C180.462 280 181.176 279.667 182.025 277.435C182.561 276.024 183 272.453 183 269.5C183 266.547 182.561 262.976 182.025 261.565L181.05 259L159.275 259.03C146.353 259.048 136.788 259.475 135.75 260.08ZM194.034 261.409C192.867 264.48 193.922 278.247 195.401 279.235C196.005 279.639 198.308 279.976 200.517 279.985L204.534 280L204.34 303.75C204.233 316.813 204.113 328.512 204.073 329.75C204.009 331.73 203.474 332 199.617 332C195.916 332 195.139 332.351 194.63 334.25C193.752 337.527 193.895 349.287 194.831 350.762C195.459 351.75 204.383 351.966 236.066 351.762L276.5 351.5V333.5V315.5L266.014 315.212C253.719 314.875 253 315.341 253 323.632C253 326.52 252.503 329.189 251.896 329.565C250.15 330.643 238.555 331.327 234.596 330.584L231 329.909V304.955V280H235.981C241.962 280 242.238 279.406 241.797 267.497L241.5 259.5L218.232 259.232L194.965 258.963L194.034 261.409ZM288.75 260.08C287.292 260.929 287 262.575 287 269.927C287 280.317 287.841 281.601 294.005 280.615L298 279.976V305.936V331.895L292.75 332.198L287.5 332.5V342V351.5L311.226 351.768L334.953 352.036L335.525 349.756C335.84 348.502 335.963 344.107 335.799 339.988L335.5 332.5L330.25 332.198L325 331.895V305.948V280H329.525C333.462 280 334.176 279.667 335.025 277.435C335.561 276.024 336 272.453 336 269.5C336 266.547 335.561 262.976 335.025 261.565L334.05 259L312.275 259.03C299.353 259.048 289.788 259.475 288.75 260.08ZM367.684 259.649C366.466 260.868 366.914 277.514 368.2 278.8C368.86 279.46 370.885 280 372.7 280C375.457 280 375.999 280.37 375.994 282.25C375.989 284.17 364.711 310.301 356.895 326.5C354.552 331.356 354.338 331.514 349.491 332L344.5 332.5L344.414 340.5C344.281 352.868 342.504 352 367.976 352C382.161 352 390.11 351.631 390.529 350.953C391.645 349.147 391.234 335.986 390.016 334.519C389.377 333.75 387.875 332.981 386.677 332.81C384.139 332.449 383.439 329.605 384.926 325.694L385.944 323.018L400.94 323.119C417.27 323.229 417.755 323.393 418.222 328.957C418.455 331.743 418.017 332.55 415.5 333.97C412.562 335.628 412.5 335.826 412.5 343.581V351.5H435H457.5L457.791 342.585C458.117 332.619 457.787 332.04 451.764 332.015C448.223 332.001 447.878 331.701 445.139 326.25C443.55 323.087 441.078 317.236 439.645 313.247C436.022 303.158 429.627 288.295 424.755 278.641C422.496 274.163 419.687 268.025 418.514 265L416.381 259.5L392.375 259.233C379.171 259.086 368.06 259.273 367.684 259.649ZM405.319 293.429C406.87 297.151 407.897 300.827 407.601 301.598C406.962 303.263 395.493 303.606 394.494 301.991C393.988 301.171 397.862 289.807 399.707 286.697C400.809 284.84 402.672 287.074 405.319 293.429Z" fill="black"/>
</svg>
