<svg width="850" height="352" viewBox="0 0 850 352" fill="none" xmlns="http://www.w3.org/2000/svg">
<path fill-rule="evenodd" clip-rule="evenodd" d="M417.047 7.183C411.2 14.352 405.804 24.958 403.983 32.861C402.337 40.001 403.192 50.296 405.964 56.714C408.251 62.01 416.652 71 419.315 71C422.351 71 422.218 57.188 418.965 34.5C417.616 25.094 418.382 14.705 420.993 7.011C422.017 3.992 422.707 1.374 422.527 1.194C422.347 1.013 419.881 3.709 417.047 7.183ZM423.179 4.5C420.646 12.165 420.585 25.424 423.022 38.5C424.368 45.721 425.273 54.545 425.296 60.657L425.333 70.813L428.226 68.675C435.129 63.571 439.862 51.65 438.538 42.705C438.195 40.392 435.205 33.064 431.891 26.419C426.949 16.507 425.745 13.097 425.184 7.419L424.5 0.5L423.179 4.5ZM379.55 13C380.368 17.125 383.141 22.846 387.179 28.741C388.776 31.073 391.123 35.225 392.393 37.966C394.683 42.908 394.711 42.929 395.851 40.428C399.028 33.455 396.163 25.698 388.184 19.674C385.154 17.386 381.816 14.161 380.765 12.507L378.855 9.5L379.55 13ZM455.258 13.512C443.54 21.403 439.185 34.288 445.289 43.003L446.838 45.214L448.352 42.286C449.185 40.676 450.83 35.582 452.009 30.966C454.576 20.909 456.226 16.781 459.109 13.192C461.444 10.285 461.44 10.305 458.262 17.003C457.087 19.479 455.22 25.654 454.113 30.724C453.007 35.794 451.629 40.826 451.051 41.905C449.663 44.498 449.723 45 451.423 45C453.653 45 459.14 39.91 460.537 36.547C461.668 33.824 461.846 11.513 460.746 10.412C460.55 10.217 458.08 11.612 455.258 13.512ZM376.025 16.405C373.895 26.62 377.112 36.966 383.839 41.537C387.536 44.049 392 44.831 392 42.967C392 41.56 387.351 32.487 384.157 27.662C382.724 25.496 380.585 20.748 379.404 17.112L377.256 10.5L376.025 16.405ZM481 38.583C467.633 42.109 454.002 51.981 449.642 61.292C446.225 68.589 445.658 82.726 448.74 83.749C450.534 84.344 461.273 73.752 467.74 65.01C475.406 54.646 485.514 44.462 491.622 40.947C499.628 36.34 500.044 37.487 492.33 42.904C484.793 48.198 480.657 52.773 471.457 66C468.205 70.675 462.475 77.538 458.723 81.25L451.902 88L458.701 87.99C466.636 87.979 473.516 85.222 478.83 79.925C483.174 75.596 485.669 70.57 488.689 60.07C491.383 50.701 494.389 44.827 498.416 41.066C500.346 39.262 500.695 38.424 499.761 37.831C497.764 36.564 487.022 36.994 481 38.583ZM350.017 44.59C350.061 56.996 356.098 73.425 363.79 82.073C366.028 84.588 370.681 88.15 374.13 89.989C379.618 92.914 381.372 93.342 388.149 93.416C399.288 93.537 399.684 92.587 391.89 84.432C388.376 80.753 381.21 74.484 375.967 70.5C364.221 61.574 357.116 53.921 353.083 45.851L350 39.681L350.017 44.59ZM352 40.577C352 40.989 353.353 43.433 355.007 46.01C359.117 52.416 368.892 61.562 378.5 67.992C382.9 70.937 389.742 76.572 393.704 80.514C401.322 88.094 402.005 88.148 401.994 81.168C401.981 72.304 396.7 62.671 389.263 57.947C386.644 56.283 379.483 53.353 373.35 51.436C364.914 48.8 360.959 46.963 357.1 43.891C354.295 41.657 352 40.166 352 40.577ZM504.994 69.934C497.405 72.243 492.575 76.877 491.344 83.03C490.741 86.046 490.842 86.186 493.102 85.488C496.392 84.471 500.465 82.383 507.248 78.234C510.409 76.301 515.809 73.946 519.248 73.001L525.5 71.284L520.201 70.142C514.28 68.866 508.754 68.79 504.994 69.934ZM516.241 75.468C513.348 76.815 508.965 79.304 506.5 81C504.035 82.696 499.742 85.138 496.96 86.427L491.902 88.77L495.1 89.885C502.945 92.62 509.263 90.214 515.326 82.184C517.614 79.154 520.839 75.85 522.493 74.841C527.123 72.017 522.7 72.461 516.241 75.468ZM324.437 78.38C324.958 83.123 333.208 91.935 339.645 94.625C344.494 96.651 350.931 96.34 354.959 93.884L358.418 91.775L355.741 90.372C354.269 89.601 348.662 87.811 343.282 86.396C334.395 84.058 324.171 79.496 325.295 78.371C325.544 78.122 327.314 78.843 329.228 79.972C331.141 81.101 336.873 82.934 341.964 84.045C347.055 85.156 352.815 86.732 354.764 87.546C356.713 88.36 358.435 88.898 358.592 88.741C359.44 87.894 355.284 81.625 352.61 79.718C349.831 77.736 348.276 77.5 338 77.5C331.675 77.5 325.977 77.16 325.338 76.745C324.549 76.233 324.259 76.759 324.437 78.38ZM417.555 89.25C405.997 127.244 406.233 167.864 418.226 204.5L421.5 214.5L428.906 214.797C432.98 214.96 436.879 214.877 437.571 214.611C438.481 214.262 437.782 211.688 435.046 205.314C427.435 187.583 421.585 167.218 420.387 154.279L419.718 147.059L424.753 142.532C430.643 137.237 435.029 130.735 438.539 122.096C442.025 113.517 440.565 112.514 435.909 120.288C433.781 123.84 429.219 129.361 425.77 132.555L419.5 138.364L419.194 127.432C418.87 115.863 420.202 101.049 422.6 89.573C423.765 83.994 423.799 82.49 422.773 81.839C420.47 80.377 420.089 80.919 417.555 89.25ZM468.703 97.442C462.899 99.512 457.304 103.598 453.972 108.198C451.701 111.332 451.272 112.555 452.23 113.163C454.331 114.497 469.201 114.104 481.216 112.397C494.113 110.564 508.09 110.993 514.876 113.429C520.019 115.276 520 115.273 520 114.058C520 112.671 509.272 104.669 503.5 101.751C492.44 96.159 477.489 94.308 468.703 97.442ZM363.5 102.398C361.3 103.093 355.091 105.988 349.701 108.831C342.447 112.658 338.812 114.004 335.701 114.015C333.391 114.024 330.9 114.411 330.166 114.876C327.761 116.401 331.931 117.255 344.253 117.763C353.304 118.135 358.134 117.816 365.253 116.373C371.01 115.207 378.708 114.5 385.65 114.5C398.317 114.5 398.55 114.195 390.895 107.642C383.67 101.457 372.962 99.408 363.5 102.398ZM484.5 115.585C481.2 116.406 472.45 117.398 465.056 117.789L451.613 118.5L454.851 122.183C460.104 128.157 466.965 131 476.13 131C483.636 131 484.235 130.814 496.063 124.805C506.634 119.435 509.207 118.535 515.379 118.047L522.5 117.485L519 116.109C513.779 114.057 491.974 113.726 484.5 115.585ZM329.693 119.271C333.421 123.254 344.532 130.455 350.616 132.831C368.077 139.651 384.833 136.47 394.264 124.545C397.794 120.081 398 119.518 396.341 118.865C393.095 117.587 378.761 117.952 366.96 119.613C353.376 121.524 340.943 121.017 332.637 118.214L326.887 116.272L329.693 119.271ZM565 203.5V213H707.5H850V203.5V194H707.5H565V203.5ZM0 206V215H142.5H285V206V197H142.5H0V206ZM333.526 282.958C332.568 284.508 331.943 348.372 332.871 349.83C333.351 350.585 334.967 351.017 336.609 350.83L339.5 350.5L339.773 332.25C339.922 322.212 340.43 314 340.901 314C341.371 314 342.789 316.813 344.051 320.25C345.313 323.688 347.346 328.75 348.569 331.5C356.943 350.337 356.841 350.161 359.221 349.823L361.5 349.5L361.763 315.75L362.027 282H358.513H355V302C355 313.043 354.601 322 354.109 322C353.618 322 352.434 320.087 351.476 317.75C349.847 313.774 339 282.95 339 282.298C339 281.52 334.045 282.118 333.526 282.958ZM386.689 282.75C385.691 284.493 383.76 294.715 380.972 313C379.337 323.725 377.53 335.425 376.957 339C376.383 342.575 375.72 346.738 375.482 348.25C375.083 350.791 375.306 351 378.417 351C381.262 351 381.886 350.574 382.447 348.25C384.859 338.256 384.94 338.111 388.613 337.096C390.795 336.494 393.093 336.465 394.557 337.022C396.917 337.919 397.258 338.68 398.795 346.5C399.406 349.609 400.09 350.573 401.863 350.829C403.119 351.01 404.705 350.943 405.39 350.681C406.716 350.172 406.857 351.5 402.029 319C399.309 300.693 396.099 284.871 394.776 283.25C393.676 281.903 387.396 281.515 386.689 282.75ZM421.872 283.652C420.784 284.962 420.44 292.118 420.211 318.215L419.922 351.125L423.711 350.813L427.5 350.5L427.776 341C428.078 330.577 428.921 329 434.191 329C436.801 329 437 328.717 437 325C437 321.373 436.761 321 434.434 321C433.023 321 430.998 320.534 429.934 319.965C428.17 319.021 428 317.755 428 305.587C428 295.992 428.358 291.948 429.275 291.186C429.977 290.604 432.789 289.987 435.525 289.814C440.487 289.501 440.501 289.491 440.81 285.75L441.121 282H432.183C425.093 282 422.961 282.342 421.872 283.652ZM459.697 282.75C458.936 284.108 457.852 289.366 456.451 298.5C455.692 303.45 453.705 316.177 452.035 326.781C448.189 351.211 448.19 351 451.953 351C454.514 351 455.044 350.502 455.947 347.25C456.52 345.188 456.991 342.782 456.994 341.905C457.003 339.325 460.599 336.813 464.438 336.705C469.074 336.573 470.114 337.756 471.5 344.726C472.636 350.445 472.682 350.503 476.417 350.816C480.076 351.123 480.17 351.048 479.599 348.316C479.275 346.767 477.43 334.925 475.499 322C471.68 296.439 469.462 285.262 467.815 283.277C466.68 281.91 460.397 281.502 459.697 282.75ZM499.232 283.228C495.361 285.095 492.765 290.551 492.237 297.935C491.598 306.857 493.469 310.714 501.591 317.223C508.717 322.933 510.522 326.292 510.448 333.702C510.329 345.572 500.593 346.65 499.165 334.951C498.525 329.709 498.385 329.5 495.5 329.5C492.91 329.5 492.453 329.91 492.153 332.5C491.51 338.063 493.888 345.728 497.093 348.425C507.188 356.919 518 349.279 518 333.652C518 324.254 516.174 320.67 506.965 312C499.049 304.545 499 304.469 499 299.438C499 295.727 499.544 293.793 501.039 292.189C504.446 288.531 508 290.014 508 295.093C508 298.197 510.252 299.471 513.072 297.961C516.098 296.342 515.721 289.011 512.411 285.077C510.257 282.517 509.123 282.011 505.661 282.068C503.372 282.105 500.479 282.627 499.232 283.228ZM392.068 300.25C392.106 300.387 392.921 305.74 393.879 312.144C395.875 325.475 395.441 328 391.155 328C385.977 328 385.572 326.383 387.469 313.278C388.403 306.821 389.381 301.192 389.643 300.769C390.08 300.062 391.91 299.67 392.068 300.25ZM465.469 302.25C467.572 311.577 468.911 324.298 467.974 326.048C466.628 328.563 461.439 328.697 460.144 326.25C459.269 324.597 461.023 306.655 462.52 301.936C463.348 299.329 464.846 299.488 465.469 302.25Z" fill="black"/>
</svg>
