<svg width="843" height="194" viewBox="0 0 843 194" fill="none" xmlns="http://www.w3.org/2000/svg">
<path fill-rule="evenodd" clip-rule="evenodd" d="M213 97C213 182.556 213.177 194 214.5 194C215.823 194 216 182.556 216 97C216 11.444 215.823 0 214.5 0C213.177 0 213 11.444 213 97ZM15.166 28.3C14.573 29.015 13.955 33.396 13.794 38.035L13.5 46.471L9.557 47.11C4.827 47.875 1 51.843 1 55.979C1 60.322 5.29 64.818 9.79 65.192L13.5 65.5L13.76 113.639L14.019 161.778L11.739 162.351C8.271 163.221 3.15 168.767 1.871 173.037C-0.389998 180.583 -6.777 180 78.099 180H154.26L153.74 175.386C153.118 169.867 150.633 166.207 145.672 163.5L142.005 161.5L142.003 113.25L142 65H145.545C150.515 65 154 61.369 154 56.191C154 50.878 150.434 47 145.548 47H142V38.571C142 32.242 141.609 29.751 140.429 28.571C139.034 27.177 131.951 27 77.551 27C28.472 27 16.03 27.259 15.166 28.3ZM534 50.644C529.802 52.285 528.436 60.275 531.829 63.345C534.403 65.674 542.177 65.566 544.345 63.171C546.314 60.996 546.521 55.095 544.715 52.625C543.393 50.817 536.714 49.582 534 50.644ZM291.455 55.455L289 57.909V97.02C289 135.85 289.252 139.133 292.4 141.235C294.532 142.658 298.712 141.976 300.595 139.897C302.347 137.962 302.54 135.515 303 109.338L303.5 80.882L326.494 110.055C339.14 126.1 350.378 139.851 351.466 140.614C354.421 142.684 358.377 142.292 360.826 139.686C362.984 137.388 363 137.078 363 96.841C363 58.845 362.886 56.206 361.171 54.655C358.691 52.41 354.43 52.57 352 55C350.094 56.906 350 58.333 350 85.5C350 101.175 349.663 113.98 349.25 113.955C348.837 113.931 338.825 101.502 327 86.335C315.175 71.168 304.307 57.463 302.849 55.879C299.438 52.175 294.903 52.006 291.455 55.455ZM732.909 73.498C730.384 74.306 726.269 76.771 723.765 78.975L719.213 82.983L718.528 80.241C718.152 78.734 717.134 76.713 716.267 75.75C714.107 73.353 708.511 73.489 706 76C704.092 77.908 704 79.333 704 107.066C704 125.641 704.383 136.847 705.061 138.114C707.628 142.91 715.559 142.459 717.87 137.385C718.585 135.816 719 127.819 719 115.601C719 97.195 719.106 96.137 721.27 92.898C725.515 86.543 734.415 84.205 741.521 87.577C747.159 90.252 748 94.046 748 116.798C748 138.221 748.427 140.137 753.485 141.407C756.85 142.251 761.808 139.613 762.571 136.572C763.596 132.488 762.4 90.764 761.147 86.882C759.353 81.324 755.832 76.676 751.987 74.788C746.951 72.315 738.409 71.737 732.909 73.498ZM800.734 73.041C783.706 77.267 773.319 95.324 776.86 114.543C778.526 123.586 781.861 129.791 788.042 135.348C798.226 144.504 810.598 145.446 822.4 137.961C825.057 136.276 827.291 135.033 827.365 135.199C829.742 140.52 833.768 142.7 837.721 140.805C842.977 138.284 843.14 137.072 842.467 105.5L841.849 76.5L839.369 74.25C838.005 73.013 836.114 72 835.167 72C832.616 72 829.007 74.852 827.911 77.733C827.02 80.077 826.819 80.146 825.188 78.67C820.102 74.068 807.907 71.26 800.734 73.041ZM399.994 73.934C392.39 76.247 384.532 83.527 380.728 91.78C378.894 95.759 378.553 98.305 378.553 108C378.553 121.132 380.024 125.7 386.596 132.975C392.356 139.35 397.986 142.194 405.977 142.766C413.832 143.328 419.961 141.657 425.477 137.45C427.415 135.972 429 135.286 429 135.927C429 138.056 433.871 142 436.5 142C437.925 142 440.195 140.895 441.545 139.545L444 137.091V107.234C444 78.569 443.919 77.29 441.961 75.189C439.041 72.054 433.75 72.231 431.139 75.55C430.036 76.953 428.974 78.579 428.779 79.164C428.577 79.77 426.777 79.109 424.594 77.628C422.487 76.198 419.129 74.575 417.132 74.02C412.959 72.861 403.675 72.815 399.994 73.934ZM571.5 75.383C560.005 80.818 556.045 90.726 561.25 101.03C564.207 106.883 567.904 109.184 581.291 113.506C587.406 115.48 593.042 117.62 593.816 118.263C597.572 121.379 596.781 127.867 592.403 129.862C586.012 132.774 575.83 130.302 568.803 124.132C563.772 119.715 558.971 120.317 556.956 125.617C553.977 133.45 569.161 143.064 584.339 142.956C601.556 142.833 612.801 131.116 609.054 117.201C606.924 109.292 600.757 105.228 583.586 100.419C573.748 97.664 570.47 92.439 575.455 87.455C579.791 83.118 590.53 84.294 596.229 89.73C599.525 92.875 604.62 93.24 606.642 90.476C608.963 87.3 608.265 83.649 604.67 80.165C597.2 72.925 581.49 70.66 571.5 75.383ZM640.606 74.568C634.087 76.957 628.417 82.406 624.8 89.76C621.646 96.171 621.5 96.978 621.5 107.984C621.5 118.573 621.725 119.959 624.3 125.203C628.07 132.878 635.55 139.523 642.792 141.628C652.263 144.381 662.384 142.444 668.887 136.633C670.811 134.914 671.373 134.78 671.785 135.943C672.771 138.731 676.936 142 679.5 142C680.925 142 683.195 140.895 684.545 139.545L687 137.091V108.093C687 77.433 686.608 74.442 682.449 73.398C677.895 72.255 674.562 73.372 673.023 76.558L671.546 79.615L665.201 76.308C659.671 73.425 657.931 73.009 651.677 73.07C647.73 73.109 642.748 73.783 640.606 74.568ZM457.016 76.707C455.552 78.568 455.079 80.18 455.503 81.866C456.707 86.664 480.238 137.539 482.275 139.75C484.467 142.128 487.934 142.641 490.941 141.032C492.976 139.942 519 83.424 519 80.093C519 74.594 510.764 71.942 507.313 76.33C506.305 77.611 501.663 87.511 496.997 98.33C492.331 109.148 488.238 118 487.901 118C487.564 118 483.111 108.533 478.007 96.962C472.719 84.976 467.952 75.51 466.928 74.962C463.466 73.108 459.265 73.848 457.016 76.707ZM532.985 76.015C531.043 77.957 530.98 79.104 531.235 108.157L531.5 138.285L534.163 140.273C537.096 142.462 540.726 142.131 543.43 139.427C544.787 138.07 545 133.791 545 107.929C545 79.333 544.911 77.911 543 76C540.422 73.422 535.571 73.429 532.985 76.015ZM419.067 88.535C423.745 90.954 427.748 96.516 429.073 102.437C433.452 122.004 414.459 136.977 399.618 125.658C395.173 122.267 392.701 116.831 392.194 109.333C391.071 92.71 405.519 81.529 419.067 88.535ZM659.137 87.021C664.739 88.577 670.547 95.501 671.96 102.307C674.492 114.505 668.176 126.751 658.408 128.583C644.798 131.136 635 122.585 635 108.152C635 98.057 638.737 91.473 646.5 87.89C651.065 85.783 653.962 85.584 659.137 87.021ZM815.685 87.064C830.87 92.801 832.391 119.042 817.986 126.756C811.826 130.054 803.772 129.589 798.589 125.635C786.651 116.53 788.161 94.584 801.168 88.146C805.897 85.805 811.29 85.403 815.685 87.064ZM90.606 94.508C96.711 97.495 102.158 103.534 104.656 110.087C106.05 113.743 106.353 118.532 106.419 138L106.5 161.5L77.687 161.765L48.875 162.031L49.187 136.765C49.466 114.254 49.706 111.119 51.391 108C59.613 92.779 75.735 87.232 90.606 94.508Z" fill="black"/>
</svg>
