<svg width="232" height="299" viewBox="0 0 232 299" fill="none" xmlns="http://www.w3.org/2000/svg">
<path fill-rule="evenodd" clip-rule="evenodd" d="M85.303 1.197C82.2 2.696 80.03 7.877 79.32 15.476L78.711 22H67.599H56.487L28.243 50.256C12.71 65.798 0 79.159 0 79.949C0 81.747 38.743 120.784 41.348 121.61C42.833 122.082 46.336 119.144 57.129 108.372C64.758 100.757 71 93.988 71 93.328C71 92.669 70.529 90.891 69.953 89.376L68.906 86.622L55.451 100.048L41.997 113.475L24.997 96.497L7.996 79.518L33.241 54.259L58.485 29H67.718H76.951L74.233 33.5C72.738 35.975 70.956 38 70.273 38C69.59 38 67.562 39.313 65.766 40.918C62.962 43.423 62.5 44.496 62.5 48.5C62.5 52.504 62.962 53.577 65.766 56.082C69.576 59.486 71.527 59.753 72.965 57.066C74.386 54.411 74.339 54.302 71.466 53.581C68.158 52.75 66.387 49.015 67.932 46.126C69.386 43.41 70.28 43.441 71.513 46.25C72.984 49.602 76.695 49.666 80.107 46.397L82.998 43.627L80.897 41.391C78.84 39.201 78.834 39.089 80.614 36.077C81.613 34.385 82.706 33 83.041 33C83.377 33 84.708 34.125 86 35.5C88.768 38.446 89.732 38.546 92.775 36.205L95.049 34.454L91.118 30.616L87.188 26.777L91.099 20.725C98.02 10.017 98.229 3.321 91.713 1.05C88.182 -0.181002 88.154 -0.181003 85.303 1.197ZM217.217 1.561C213.884 3.895 212.159 7.992 211.403 15.371L210.724 22H199.6H188.477L172.678 37.821C157.267 53.255 156.91 53.708 158.101 56.321C158.772 57.795 159.592 59 159.923 59C160.254 59 167.264 52.25 175.5 44L190.475 29H199.794H209.113L206.681 33.079C205.343 35.323 202.955 37.82 201.374 38.629C195.335 41.72 193.333 47.877 196.425 53.855C198.79 58.429 205.464 60.364 210.316 57.883C216.401 54.771 218.021 46.472 213.495 41.589C210.957 38.851 210.981 38.437 213.929 34.001C214.753 32.762 215.799 33.362 219.963 37.463L225 42.425V52.47V62.515L199.508 87.992L174.016 113.469L166.258 105.76L158.5 98.05L156.696 101.2L154.892 104.35L163.181 112.682C167.74 117.265 172.325 121.286 173.369 121.617C174.865 122.092 181.281 116.209 203.634 93.866L232 65.513V52.478V39.442L225.6 33.1L219.201 26.757L223.046 20.807C228.263 12.736 229.53 8.695 228.003 5.006C227.279 3.259 225.611 1.712 223.756 1.065C219.861 -0.293003 219.864 -0.293003 217.217 1.561ZM89.433 9.25C89.047 10.488 88.075 12.4 87.273 13.5C85.697 15.661 85.689 15.771 87.647 8.75C87.915 7.787 88.585 7 89.135 7C89.713 7 89.839 7.949 89.433 9.25ZM222 7.532C222 8.624 219.082 15 218.582 15C218.297 15 218.236 14.438 218.448 13.75C218.66 13.063 219.104 11.262 219.436 9.75C219.767 8.238 220.48 7 221.019 7C221.559 7 222 7.239 222 7.532ZM103.797 43.792C93.515 47.527 85.981 55.13 81.936 65.855C78.879 73.957 79.534 85.237 83.53 93.337C95.677 117.959 129.843 120.403 145.345 97.759C155.518 82.899 153.279 63.954 139.884 51.553C132.468 44.687 125.599 41.985 115.712 42.042C111.514 42.066 106.535 42.797 103.797 43.792ZM207.793 48.49C209.557 48.485 211 48.9 211 49.412C211 51.154 207.697 54 205.674 54C201.287 54 198.273 48.127 201.172 45.228C202.068 44.332 202.608 44.58 203.465 46.278C204.275 47.883 205.477 48.497 207.793 48.49ZM128 51.458C129.925 52.446 131.699 53.434 131.943 53.653C132.186 53.873 129.725 56.741 126.474 60.026L120.563 66H107.781H95V70V74H103.696H112.392L109 77.5C105.963 80.634 105.053 81 100.304 81H95V85C95 87.396 95.471 89 96.174 89C96.82 89 96.297 90.119 95.012 91.488C91.976 94.719 90.505 93.546 88.367 86.191C86.279 79.007 86.997 70.903 90.295 64.437C93.484 58.185 97.063 54.81 104 51.51C108.763 49.245 110.505 48.946 117 49.278C121.566 49.512 125.869 50.365 128 51.458ZM141.63 65.257C145.152 72.206 145.285 82.715 141.938 89.628C137.025 99.777 128.816 105.178 117.333 105.813C109.753 106.233 105.643 105.306 100.106 101.926L96.712 99.854L102.072 94.427L107.432 89H122.276H137.121L136.81 85.25L136.5 81.5L126.089 81.213L115.679 80.926L119.036 77.463C122.267 74.13 122.668 74 129.757 74H137.121L136.81 70.25C136.537 66.952 136.154 66.46 133.629 66.172L130.759 65.844L134.038 62.461C135.841 60.6 137.704 59.317 138.177 59.61C138.651 59.902 140.204 62.443 141.63 65.257ZM46.5 62.74C41 64.142 36.347 65.414 36.16 65.568C35.145 66.401 30.022 89.422 30.701 90.101C31.572 90.972 53.763 85.695 54.984 84.327C55.712 83.512 61 63.034 61 61.03C61 59.506 57.635 59.903 46.5 62.74ZM171.857 66.75C163.521 85.144 161.89 89.29 162.679 90.079C163.153 90.553 167.772 89.622 173.032 87.994L182.529 85.053L190.764 75.106C195.294 69.635 199 64.681 199 64.098C199 62.98 198.408 62.82 187.885 61.088C175.428 59.039 175.337 59.071 171.857 66.75ZM8 251V298H28H48V291V284H35.5H23V244V204H15.5H8V251ZM54 251V298H62H70V251V204H62H54V251ZM76.472 207.25C77.59 213.715 90 296.059 90 297.017C90 297.598 94.25 298 100.389 298H110.777L111.365 294.75C112.08 290.793 125 205.326 125 204.551C125 204.248 121.737 204 117.75 204H110.5L106.061 237.978C103.62 256.665 101.466 271.8 101.276 271.609C101.014 271.348 92 205.965 92 204.329C92 204.148 88.38 204 83.955 204H75.909L76.472 207.25ZM131 251V298H139H147V278V258H151.5C154.667 258 156.593 258.593 158 260C160.377 262.377 160.132 260.597 160.888 281L161.5 297.5L169.653 297.789L177.807 298.078L176.927 294.289C176.444 292.205 176.034 284.2 176.018 276.5C175.983 259.927 175.089 255.955 170.586 252.361L167.262 249.709L170.607 246.772C174.79 243.099 175.987 238.864 175.994 227.718C176.002 215 173.353 209.487 165.5 205.881C162.183 204.357 158.898 204.04 146.25 204.022L131 204V251ZM186 251V298H206.5H227V291V284H214H201V270.035V256.07L211.25 255.785L221.5 255.5L221.796 248.75L222.091 242H211.546H201V230V218H214H227V211V204H206.5H186V251ZM158.171 219.655C159.677 221.018 160 222.853 160 230.044C160 240.821 158.717 242.939 151.711 243.729L147 244.26V231.13V218H151.671C154.615 218 157.019 218.612 158.171 219.655Z" fill="black"/>
</svg>
