<svg width="850" height="369" viewBox="0 0 850 369" fill="none" xmlns="http://www.w3.org/2000/svg">
<path fill-rule="evenodd" clip-rule="evenodd" d="M351.646 2.452C349.541 4.403 349 5.823 349 9.401C349 17.713 371.032 208.473 372.273 210.905C374.784 215.826 376.581 216 425 216C474.32 216 475.594 215.864 477.82 210.373C479.032 207.38 500.999 16.739 501 9.202C501 5.839 500.425 4.371 498.354 2.452L495.708 0H425H354.292L351.646 2.452ZM491.709 13.25C491.4 15.588 489.702 30.55 487.937 46.5C486.172 62.45 484.351 75.915 483.891 76.423C483.383 76.983 482.057 76.891 480.52 76.191C475.596 73.947 465.462 72.942 458.184 73.974C447.127 75.542 437.755 79.611 424.159 88.748C417.303 93.356 409.175 98.397 406.096 99.951C394.129 105.99 382.928 107.517 373.329 104.417L368.428 102.835L363.629 60.167C360.989 36.7 358.582 15.588 358.279 13.25L357.728 9H425H492.272L491.709 13.25ZM477.327 86.185C479.981 86.763 482.35 87.748 482.59 88.374C482.83 89 480.096 115.26 476.513 146.73C472.931 178.2 470 204.41 470 204.974C470 205.66 455.096 206 425 206C400.25 206 380.003 205.662 380.007 205.25C380.011 204.838 377.723 184.326 374.922 159.668C372.122 135.01 369.994 114.673 370.193 114.473C370.393 114.274 372.344 114.525 374.528 115.031C384.457 117.333 399.267 114.923 410.721 109.141C413.985 107.493 420.895 103.251 426.078 99.714C447.211 85.29 458.964 82.187 477.327 86.185ZM565 204V214H707.5H850V204V194H707.5H565V204ZM0 206V216H142.5H285V206V196H142.5H0V206ZM470.138 264.077C464.06 265.271 459.536 269.038 457.339 274.733C455.674 279.048 455.502 282.911 455.522 315.5C455.546 354.479 455.735 356.082 460.96 361.651C465.389 366.371 471.578 368.37 479.916 367.774C490.659 367.005 496.45 362.428 499.116 352.599C500.281 348.306 499.418 282.509 498.171 280.5C497.829 279.95 497.667 278.787 497.81 277.915C497.953 277.044 496.592 274.13 494.785 271.441C491.99 267.281 490.679 266.296 486 264.837C479.939 262.947 476.678 262.791 470.138 264.077ZM576.625 264.408C567.579 267.775 562.328 276.657 563.267 287.005C563.959 294.642 567.756 302.772 577.379 317.223C588.311 333.64 592 341.132 592 346.918C592 352.56 589.938 355 585.171 355C580.395 355 578 352.019 578 346.071C578 339.843 576.29 338 570.51 338C563.433 338 562.999 338.425 563.01 345.357C563.022 352.742 566.328 360.695 570.634 363.697C579.353 369.774 596.567 369.414 599.955 363.085C600.568 361.938 600.78 361 600.424 361C600.069 361 600.75 360.212 601.939 359.25C604.316 357.324 605.958 351.684 605.942 345.5C605.924 338.876 600.892 328.161 589.927 311.396C584.208 302.653 578.729 293.137 577.752 290.248C576.17 285.572 576.131 284.622 577.403 281.579C579.868 275.678 585.357 274.266 589.545 278.455C591.509 280.418 592 281.928 592 286V291.091L598.74 290.796C606.45 290.457 606.631 290.209 605.541 281.479C604.72 274.909 600.92 268.885 595.771 265.991C590.808 263.202 581.855 262.462 576.625 264.408ZM256.605 264.829C255.866 266.026 254.505 275.052 250.548 305C248.622 319.575 245.929 338.9 244.562 347.944C242.755 359.904 242.373 364.744 243.161 365.694C243.825 366.494 246.491 367 250.04 367H255.834L256.842 362.25C257.397 359.637 258.162 354.291 258.543 350.369C258.923 346.447 259.571 342.695 259.981 342.031C260.715 340.843 273.135 340.348 274.896 341.436C275.35 341.716 276.031 345.895 276.412 350.723C276.792 355.55 277.552 361.208 278.102 363.296L279.102 367.093L285.301 366.796C291.386 366.505 291.505 366.445 291.775 363.5C292.069 360.294 277.565 266.723 276.51 265.016C275.759 263.801 257.347 263.629 256.605 264.829ZM311.619 265.034C305.881 266.752 300.699 273.559 299.465 281C298.356 287.684 298.226 294.022 299.186 294.615C299.652 294.903 299.732 295.625 299.365 296.219C298.363 297.839 298.959 348.959 300.026 353C301.307 357.849 306.572 363.901 311.429 366.107C316.712 368.507 327.608 368.631 332.398 366.347C335.708 364.769 336.093 364.794 341.006 366.907C343.835 368.124 347.128 368.98 348.324 368.81C350.257 368.535 350.5 367.886 350.5 363.013C350.5 358.018 350.254 357.409 347.758 356.213C346.25 355.49 344.555 354.037 343.992 352.985C343.35 351.785 342.969 338.266 342.972 316.738C342.975 297.647 342.548 280.912 342.012 279.04C340.468 273.659 336.113 268.233 331.573 266.035C327.093 263.866 317.181 263.369 311.619 265.034ZM356.91 266.204C356.311 274.834 357.405 353.935 358.151 355.897C359.943 360.61 363.83 364.7 368.687 366.983C372.666 368.853 374.638 369.152 380.327 368.744C388.687 368.146 394.141 364.783 397.709 358.025L400.071 353.551L399.897 313.525C399.802 291.511 399.514 271.587 399.257 269.25L398.79 265H392.954C389.744 265 386.869 265.403 386.565 265.895C386.26 266.388 385.812 286.008 385.569 309.496C385.17 348.087 384.962 352.385 383.409 354.101C381.367 356.357 376.211 356.606 373.441 354.581C371.584 353.225 371.478 351.257 371 309.331L370.5 265.5L363.75 265.204C358.772 264.986 356.976 265.249 356.91 266.204ZM411.314 266.624C410.971 267.517 410.989 279.33 411.354 292.874C411.719 306.418 412 328.237 411.978 341.36C411.953 356.729 412.315 365.675 412.997 366.496C413.8 367.464 417.718 367.664 429.277 367.328C449.871 366.729 449 367.001 449 361.181C449 358.551 448.46 355.86 447.8 355.2C447.032 354.432 443.12 354 436.939 354H427.279L426.648 348.75C426.301 345.863 426.013 338.456 426.009 332.29L426 321.081L434.25 320.79L442.5 320.5L442.808 315.095C443.015 311.447 442.69 309.42 441.808 308.86C439.791 307.581 428.557 307.843 427.2 309.2C426.267 310.133 426 306.696 426 293.734V277.068L436.75 276.784L447.5 276.5L447.746 272.098C448.14 265.073 447.945 265 428.846 265C414.164 265 411.855 265.214 411.314 266.624ZM510.667 265.667C509.533 266.8 509.903 350.11 511.06 354.277C513.424 362.788 522.222 368.956 532 368.956C541.097 368.956 549.213 363.768 552.181 356.056C553.192 353.428 553.41 267.473 552.409 265.853C551.605 264.552 541.563 264.837 540.2 266.2C539.304 267.096 539 278.133 539 309.7C539 350.667 538.937 352.063 537 354C534.32 356.68 528.891 356.642 526.434 353.927C524.668 351.976 524.546 349.356 524.354 309.453C524.242 286.132 523.865 266.59 523.516 266.026C522.821 264.902 511.741 264.592 510.667 265.667ZM483.145 278.75C483.828 280.464 484.435 294.706 484.755 316.544C485.334 356.045 485.518 355 478 355C471.858 355 471.354 353.855 470.771 338.579C470.46 330.403 469.787 324.448 469.078 323.594C468.191 322.525 468.186 322.003 469.059 321.463C469.874 320.96 470.142 315.989 469.966 304.624C469.829 295.756 469.78 286.587 469.858 284.25C470.046 278.633 472.652 276 478.025 276C481.483 276 482.204 276.387 483.145 278.75ZM326.748 280.147C327.623 281.981 328.037 288.889 328.098 302.647C328.146 313.566 328.12 322.95 328.041 323.5C327.963 324.05 327.943 330.515 327.998 337.867C328.083 349.151 327.833 351.527 326.394 353.117C324.015 355.746 318.697 355.563 315.732 352.75L313.36 350.5L313.43 315.663L313.5 280.827L315.923 278.863C319.465 275.992 325.085 276.659 326.748 280.147ZM270.097 304.681C271.693 316.132 272.999 326.063 272.999 326.75C273 327.614 271.112 328 266.892 328C261.066 328 260.808 327.896 261.316 325.75C261.609 324.512 262.882 314.411 264.144 303.303C265.406 292.194 266.609 283.276 266.817 283.484C267.025 283.692 268.501 293.231 270.097 304.681Z" fill="black"/>
</svg>
