<svg width="180" height="180" viewBox="0 0 180 180" fill="none" xmlns="http://www.w3.org/2000/svg">
<path d="M15 62.2C15 96.9 15.7 101.9 22 114.7C30.7 132.4 48.4 144.6 68.4 146.6L75.2 147.3L74.8 113.9C74.4 85.7 74 79.6 72.6 75C67.2 58.3 56.2 45 41.9 38.2C33.2 34 25.7 32 19 32H15V62.2Z" fill="black"/>
<path d="M105.1 33.5C95 36.6 84.2 47.6 80.9 57.8C80.2 59.8 79.5 70 79.3 80.4L78.8 99.3L84.2 98.8C96 97.8 107.6 89.5 113.3 78.1L116.5 71.6L116.8 51.8L117.2 32L113.3 32.1C111.2 32.1 107.5 32.8 105.1 33.5Z" fill="black"/>
<path d="M79 106.4C79 114.5 85 128 91.4 134.4C102.2 145.3 108.9 147 140.3 147H164.2L163.8 141.2C162.9 128.3 153.5 115.3 140.5 108.9L133.6 105.5L106.3 105.2C82.5 104.9 79 105.1 79 106.4Z" fill="black"/>
</svg>
