<svg width="180" height="180" viewBox="0 0 180 180" fill="none" xmlns="http://www.w3.org/2000/svg">
<path d="M73.8772 25.9238C48.2556 32.7026 30.7915 53.6135 27.5745 81.1884L27 86.1289H153.04L152.466 81.7628C149.708 61.886 142.814 48.9028 129.027 37.5282C114.895 25.8089 92.2605 20.9833 73.8772 25.9238Z" fill="black"/>
<path d="M27.5745 98.4227C29.4128 117.61 39.7534 135.189 55.494 145.645C66.8686 153.228 74.9113 155.526 89.9626 155.526C105.014 155.526 113.057 153.228 124.431 145.645C140.172 135.189 150.512 117.61 152.351 98.4227L152.925 93.0226H149.249C145.687 93.0226 145.572 93.0226 144.308 101.41C137.874 142.083 93.0647 161.615 58.826 138.751C46.1875 130.249 38.1448 117.38 35.6171 101.41C34.3533 93.0226 34.2384 93.0226 30.6766 93.0226H27L27.5745 98.4227Z" fill="black"/>
<path d="M43.3151 98.8822C48.0258 134.5 87.5498 151.964 117.193 131.627C127.418 124.619 134.887 112.095 136.61 98.8822L137.414 93.0226H133.393C129.372 93.0226 129.372 93.0226 128.682 99.2269C127.418 111.406 118.457 123.47 106.278 129.444C100.763 132.087 98.235 132.547 89.9626 132.547C81.6901 132.547 79.1624 132.087 73.6475 129.444C61.4686 123.47 52.5067 111.406 51.2429 99.2269C50.5535 93.0226 50.5535 93.0226 46.5322 93.0226H42.5109L43.3151 98.8822Z" fill="black"/>
</svg>
